<svg width="120" height="120" viewBox="0 0 120 120" fill="none" xmlns="http://www.w3.org/2000/svg">
<rect width="120" height="120" rx="22" fill="#112725"/>
<path d="M28.1948 47.324V84.4759L36.378 88.8076L36.1832 51.6556L41.4438 48.7396V91.4732L60.1483 101.802L78.4631 91.973V53.155L70.2799 48.7396V88.4744L60.1483 93.9722L49.627 88.3078V35.6619L28.1948 47.324Z" fill="#FF8100"/>
<path d="M60.1483 89.1408L55.8619 86.8084V32.3299L59.9535 30.1641L91.7121 47.4906V84.6425L83.5289 89.1408V51.489L64.0451 40.9931V86.975L60.1483 89.1408Z" fill="#FF8100"/>
<path fill-rule="evenodd" clip-rule="evenodd" d="M59.955 29.9678L91.907 47.3997V84.734L83.3341 89.4464V51.5814L64.2399 41.2955V87.0658L60.1494 89.3393L55.667 86.9003V32.2375L59.955 29.9678ZM56.0567 32.4232V86.7174L60.1472 88.9432L63.8502 86.885V40.6917L83.7237 51.3975V88.8361L91.5173 84.5521V47.5824L59.9519 30.3613L56.0567 32.4232ZM49.8219 35.3589V88.2163L60.1479 93.7756L70.0851 88.3833V48.4379L78.658 53.0636V92.0656L60.1468 102L41.249 91.5644V49.0466L36.3785 51.7463L36.5745 89.1079L28 84.5692V47.233L49.8219 35.3589ZM28.3897 47.4159V84.3836L36.1816 88.5081L35.9879 51.5658L41.6387 48.4335V91.3829L60.1498 101.605L78.2683 91.8813V53.2473L70.4747 49.0422V88.5664L60.1487 94.1698L49.4322 88.4002V35.9659L28.3897 47.4159Z" fill="#FF8100"/>
<path d="M60.1483 25.6939L28.1948 43.0204V34.3572L59.9535 17.1973L91.7121 34.5238V42.8538L60.1483 25.6939Z" fill="#FF8100"/>
<path fill-rule="evenodd" clip-rule="evenodd" d="M59.954 17L91.907 34.4325V43.1572L60.1482 25.8913L28 43.3234V34.2654L59.954 17ZM28.3897 34.449V42.7176L60.1485 25.4966L91.5173 42.5505V34.6152L59.953 17.3947L28.3897 34.449Z" fill="#FF8100"/>
<path d="M42.8077 17.1973V34.3572H34.6245V21.6955L42.8077 17.1973Z" fill="#FF8100"/>
</svg>
