<svg width="497" height="398" viewBox="0 0 497 398" fill="none" xmlns="http://www.w3.org/2000/svg">
<path d="M15.6731 313.561C17.9421 313.561 19.9155 313.818 21.5934 314.333C23.2904 314.829 24.6346 315.363 25.6261 315.935C26.6366 316.507 27.2468 316.879 27.4565 317.05L23.9672 322.856C23.6622 322.608 23.1378 322.265 22.3942 321.826C21.6697 321.369 20.7926 320.968 19.763 320.625C18.7333 320.263 17.6179 320.082 16.4167 320.082C14.6816 320.082 13.2897 320.415 12.241 321.083C11.2114 321.731 10.6966 322.675 10.6966 323.914C10.6966 324.753 10.9731 325.506 11.526 326.174C12.079 326.822 12.8893 327.432 13.9571 328.004C15.0439 328.576 16.369 329.177 17.9325 329.806C19.3054 330.34 20.6114 330.96 21.8508 331.665C23.1092 332.371 24.2246 333.2 25.1971 334.153C26.1886 335.107 26.9703 336.213 27.5423 337.471C28.1334 338.729 28.4289 340.169 28.4289 341.79C28.4289 343.601 28.0571 345.184 27.3135 346.537C26.589 347.891 25.5784 349.026 24.2818 349.941C23.0044 350.856 21.5362 351.542 19.8774 352C18.2185 352.458 16.4739 352.686 14.6435 352.686C12.1648 352.686 9.93392 352.4 7.95095 351.828C5.98704 351.237 4.39495 350.608 3.17466 349.941C1.95437 349.273 1.23936 348.844 1.02962 348.654L4.69049 342.619C4.91929 342.791 5.3483 343.067 5.97751 343.448C6.62579 343.83 7.40754 344.221 8.32275 344.621C9.25704 345.021 10.2676 345.365 11.3544 345.651C12.4603 345.937 13.5853 346.08 14.7293 346.08C16.7885 346.08 18.3425 345.651 19.3912 344.793C20.4398 343.935 20.9642 342.819 20.9642 341.446C20.9642 340.417 20.6305 339.511 19.9632 338.729C19.2958 337.948 18.352 337.233 17.1317 336.584C15.9305 335.917 14.4909 335.24 12.813 334.554C11.1351 333.848 9.57164 333.028 8.12255 332.094C6.69252 331.141 5.53897 329.978 4.66189 328.605C3.7848 327.213 3.34626 325.506 3.34626 323.485C3.34626 321.483 3.90874 319.739 5.03369 318.251C6.17771 316.764 7.68401 315.611 9.55258 314.791C11.4402 313.971 13.4804 313.561 15.6731 313.561ZM39.975 333.095C39.975 335.497 40.4708 337.671 41.4623 339.616C42.4728 341.561 43.8552 343.105 45.6094 344.249C47.3635 345.374 49.3942 345.937 51.7013 345.937C54.0084 345.937 56.039 345.374 57.7932 344.249C59.5664 343.105 60.9488 341.561 61.9403 339.616C62.9317 337.671 63.4275 335.497 63.4275 333.095C63.4275 330.693 62.9317 328.528 61.9403 326.603C60.9488 324.658 59.5664 323.113 57.7932 321.969C56.039 320.825 54.0084 320.253 51.7013 320.253C49.3942 320.253 47.3635 320.825 45.6094 321.969C43.8552 323.113 42.4728 324.658 41.4623 326.603C40.4708 328.528 39.975 330.693 39.975 333.095ZM32.5389 333.095C32.5389 330.349 33.0156 327.794 33.9689 325.43C34.9414 323.047 36.2951 320.968 38.0302 319.195C39.7653 317.422 41.7959 316.04 44.1221 315.048C46.4674 314.057 48.9937 313.561 51.7013 313.561C54.4469 313.561 56.9828 314.057 59.309 315.048C61.6352 316.04 63.6563 317.422 65.3723 319.195C67.1074 320.968 68.4516 323.047 69.405 325.43C70.3583 327.794 70.835 330.349 70.835 333.095C70.835 335.86 70.3679 338.434 69.4336 340.817C68.4993 343.182 67.1742 345.26 65.4581 347.052C63.7421 348.825 61.721 350.208 59.3948 351.199C57.0686 352.191 54.5041 352.686 51.7013 352.686C48.8603 352.686 46.2672 352.191 43.9219 351.199C41.5957 350.208 39.5746 348.825 37.8586 347.052C36.1616 345.26 34.846 343.182 33.9117 340.817C32.9965 338.434 32.5389 335.86 32.5389 333.095ZM82.6685 320.854L83.1547 320.94V352H76.0332V314.247H85.8717L102.803 345.25L102.317 345.365V314.247H109.439V352H99.5428L82.6685 320.854ZM138.444 336.213H123.457V352H116.364V314.247H123.457V329.92H138.444V314.247H145.537V352H138.444V336.213ZM158.455 333.095C158.455 335.497 158.951 337.671 159.942 339.616C160.953 341.561 162.335 343.105 164.089 344.249C165.843 345.374 167.874 345.937 170.181 345.937C172.488 345.937 174.519 345.374 176.273 344.249C178.046 343.105 179.429 341.561 180.42 339.616C181.412 337.671 181.907 335.497 181.907 333.095C181.907 330.693 181.412 328.528 180.42 326.603C179.429 324.658 178.046 323.113 176.273 321.969C174.519 320.825 172.488 320.253 170.181 320.253C167.874 320.253 165.843 320.825 164.089 321.969C162.335 323.113 160.953 324.658 159.942 326.603C158.951 328.528 158.455 330.693 158.455 333.095ZM151.019 333.095C151.019 330.349 151.496 327.794 152.449 325.43C153.421 323.047 154.775 320.968 156.51 319.195C158.245 317.422 160.276 316.04 162.602 315.048C164.947 314.057 167.474 313.561 170.181 313.561C172.927 313.561 175.463 314.057 177.789 315.048C180.115 316.04 182.136 317.422 183.852 319.195C185.587 320.968 186.932 323.047 187.885 325.43C188.838 327.794 189.315 330.349 189.315 333.095C189.315 335.86 188.848 338.434 187.914 340.817C186.979 343.182 185.654 345.26 183.938 347.052C182.222 348.825 180.201 350.208 177.875 351.199C175.549 352.191 172.984 352.686 170.181 352.686C167.34 352.686 164.747 352.191 162.402 351.199C160.076 350.208 158.055 348.825 156.339 347.052C154.642 345.26 153.326 343.182 152.392 340.817C151.476 338.434 151.019 335.86 151.019 333.095ZM207.498 313.561C209.767 313.561 211.74 313.818 213.418 314.333C215.115 314.829 216.459 315.363 217.451 315.935C218.461 316.507 219.071 316.879 219.281 317.05L215.792 322.856C215.487 322.608 214.962 322.265 214.219 321.826C213.494 321.369 212.617 320.968 211.588 320.625C210.558 320.263 209.443 320.082 208.241 320.082C206.506 320.082 205.114 320.415 204.066 321.083C203.036 321.731 202.521 322.675 202.521 323.914C202.521 324.753 202.798 325.506 203.351 326.174C203.904 326.822 204.714 327.432 205.782 328.004C206.869 328.576 208.194 329.177 209.757 329.806C211.13 330.34 212.436 330.96 213.675 331.665C214.934 332.371 216.049 333.2 217.022 334.153C218.013 335.107 218.795 336.213 219.367 337.471C219.958 338.729 220.254 340.169 220.254 341.79C220.254 343.601 219.882 345.184 219.138 346.537C218.414 347.891 217.403 349.026 216.106 349.941C214.829 350.856 213.361 351.542 211.702 352C210.043 352.458 208.299 352.686 206.468 352.686C203.989 352.686 201.759 352.4 199.776 351.828C197.812 351.237 196.22 350.608 194.999 349.941C193.779 349.273 193.064 348.844 192.854 348.654L196.515 342.619C196.744 342.791 197.173 343.067 197.802 343.448C198.45 343.83 199.232 344.221 200.147 344.621C201.082 345.021 202.092 345.365 203.179 345.651C204.285 345.937 205.41 346.08 206.554 346.08C208.613 346.08 210.167 345.651 211.216 344.793C212.264 343.935 212.789 342.819 212.789 341.446C212.789 340.417 212.455 339.511 211.788 338.729C211.12 337.948 210.177 337.233 208.956 336.584C207.755 335.917 206.316 335.24 204.638 334.554C202.96 333.848 201.396 333.028 199.947 332.094C198.517 331.141 197.364 329.978 196.487 328.605C195.609 327.213 195.171 325.506 195.171 323.485C195.171 321.483 195.733 319.739 196.858 318.251C198.002 316.764 199.509 315.611 201.377 314.791C203.265 313.971 205.305 313.561 207.498 313.561ZM239.224 342.104C239.224 340.636 239.5 339.339 240.053 338.215C240.606 337.071 241.312 336.089 242.17 335.269C243.047 334.43 243.952 333.724 244.887 333.152C245.84 332.58 246.727 332.132 247.547 331.808C248.385 331.465 249.034 331.226 249.491 331.093C249.091 330.864 248.624 330.492 248.09 329.978C247.575 329.444 247.07 328.805 246.574 328.061C246.097 327.299 245.697 326.45 245.373 325.516C245.049 324.582 244.887 323.6 244.887 322.57C244.887 320.968 245.325 319.481 246.202 318.108C247.098 316.736 248.395 315.639 250.092 314.819C251.789 313.98 253.82 313.561 256.184 313.561C258.529 313.561 260.483 313.961 262.047 314.762C263.63 315.563 264.821 316.65 265.622 318.023C266.442 319.395 266.852 320.949 266.852 322.684C266.852 324.038 266.547 325.259 265.937 326.345C265.346 327.413 264.602 328.357 263.706 329.177C262.81 329.978 261.914 330.654 261.017 331.207C260.14 331.76 259.397 332.18 258.787 332.466L265.222 339.387C265.698 338.987 266.356 338.3 267.195 337.328C268.053 336.356 268.94 335.192 269.855 333.839L274.603 338.1C274.317 338.558 273.907 339.139 273.373 339.845C272.839 340.55 272.257 341.256 271.628 341.961C271.018 342.667 270.417 343.267 269.826 343.763L277.663 352H268.654L264.478 347.567C263.506 348.406 262.381 349.216 261.103 349.998C259.845 350.78 258.415 351.428 256.813 351.943C255.211 352.439 253.4 352.686 251.379 352.686C249.186 352.686 247.165 352.276 245.316 351.457C243.485 350.637 242.008 349.435 240.883 347.853C239.777 346.27 239.224 344.354 239.224 342.104ZM253.009 335.383C252.761 335.478 252.399 335.64 251.922 335.869C251.465 336.079 250.969 336.356 250.435 336.699C249.901 337.023 249.396 337.423 248.919 337.9C248.443 338.358 248.052 338.882 247.747 339.473C247.442 340.064 247.289 340.731 247.289 341.475C247.289 342.505 247.527 343.363 248.004 344.049C248.481 344.716 249.12 345.212 249.92 345.536C250.74 345.86 251.646 346.022 252.637 346.022C253.648 346.022 254.62 345.851 255.555 345.508C256.489 345.164 257.337 344.745 258.1 344.249C258.882 343.754 259.502 343.277 259.959 342.819L253.009 335.383ZM256.155 319.052C255.24 319.052 254.458 319.233 253.81 319.596C253.162 319.939 252.676 320.387 252.351 320.94C252.027 321.493 251.865 322.065 251.865 322.656C251.865 323.285 252.018 323.933 252.323 324.601C252.628 325.268 252.981 325.888 253.381 326.46C253.8 327.032 254.182 327.508 254.525 327.89C254.868 328.252 255.068 328.471 255.126 328.548C255.412 328.452 255.841 328.262 256.413 327.976C256.985 327.67 257.566 327.27 258.157 326.774C258.767 326.279 259.282 325.688 259.702 325.001C260.121 324.315 260.331 323.533 260.331 322.656C260.331 321.645 259.95 320.797 259.187 320.11C258.443 319.405 257.433 319.052 256.155 319.052ZM314.061 345.622C316.044 345.622 317.807 345.346 319.352 344.793C320.896 344.221 322.031 343.658 322.755 343.105L325.815 349.197C324.938 349.96 323.423 350.732 321.268 351.514C319.132 352.296 316.577 352.686 313.603 352.686C310.819 352.686 308.217 352.2 305.795 351.228C303.374 350.236 301.248 348.863 299.417 347.109C297.587 345.336 296.157 343.267 295.127 340.903C294.097 338.52 293.583 335.946 293.583 333.181C293.583 330.416 294.088 327.842 295.098 325.459C296.128 323.056 297.558 320.968 299.389 319.195C301.219 317.422 303.345 316.04 305.766 315.048C308.207 314.057 310.819 313.561 313.603 313.561C316.577 313.561 319.132 313.952 321.268 314.734C323.423 315.515 324.938 316.287 325.815 317.05L322.755 323.142C322.031 322.589 320.896 322.036 319.352 321.483C317.807 320.911 316.044 320.625 314.061 320.625C312.04 320.625 310.238 320.949 308.655 321.598C307.092 322.246 305.757 323.152 304.651 324.315C303.564 325.459 302.735 326.784 302.163 328.29C301.591 329.796 301.305 331.398 301.305 333.095C301.305 334.811 301.591 336.432 302.163 337.957C302.735 339.463 303.564 340.798 304.651 341.961C305.757 343.105 307.092 344.001 308.655 344.65C310.238 345.298 312.04 345.622 314.061 345.622ZM353.395 336.213H338.408V352H331.315V314.247H338.408V329.92H353.395V314.247H360.488V352H353.395V336.213ZM379.383 314.247H386.562L401.091 352H393.483L390.538 343.849H375.436L372.433 352H364.797L379.383 314.247ZM377.782 337.528H388.192L383.016 322.885H382.93L377.782 337.528ZM419.777 352H411.626L398.041 314.247H406.077L415.716 343.019L425.354 314.247H433.391L419.777 352ZM437.897 314.247H461.321V320.568H444.99V330.006H461.092V336.127H444.99V345.679H461.321V352H437.897V314.247ZM481.27 313.561C483.539 313.561 485.512 313.818 487.19 314.333C488.887 314.829 490.231 315.363 491.223 315.935C492.233 316.507 492.843 316.879 493.053 317.05L489.564 322.856C489.259 322.608 488.734 322.265 487.991 321.826C487.266 321.369 486.389 320.968 485.359 320.625C484.33 320.263 483.214 320.082 482.013 320.082C480.278 320.082 478.886 320.415 477.838 321.083C476.808 321.731 476.293 322.675 476.293 323.914C476.293 324.753 476.57 325.506 477.123 326.174C477.675 326.822 478.486 327.432 479.554 328.004C480.64 328.576 481.966 329.177 483.529 329.806C484.902 330.34 486.208 330.96 487.447 331.665C488.706 332.371 489.821 333.2 490.794 334.153C491.785 335.107 492.567 336.213 493.139 337.471C493.73 338.729 494.025 340.169 494.025 341.79C494.025 343.601 493.654 345.184 492.91 346.537C492.185 347.891 491.175 349.026 489.878 349.941C488.601 350.856 487.133 351.542 485.474 352C483.815 352.458 482.07 352.686 480.24 352.686C477.761 352.686 475.53 352.4 473.547 351.828C471.584 351.237 469.991 350.608 468.771 349.941C467.551 349.273 466.836 348.844 466.626 348.654L470.287 342.619C470.516 342.791 470.945 343.067 471.574 343.448C472.222 343.83 473.004 344.221 473.919 344.621C474.854 345.021 475.864 345.365 476.951 345.651C478.057 345.937 479.182 346.08 480.326 346.08C482.385 346.08 483.939 345.651 484.988 344.793C486.036 343.935 486.561 342.819 486.561 341.446C486.561 340.417 486.227 339.511 485.56 338.729C484.892 337.948 483.949 337.233 482.728 336.584C481.527 335.917 480.087 335.24 478.41 334.554C476.732 333.848 475.168 333.028 473.719 332.094C472.289 331.141 471.135 329.978 470.258 328.605C469.381 327.213 468.943 325.506 468.943 323.485C468.943 321.483 469.505 319.739 470.63 318.251C471.774 316.764 473.281 315.611 475.149 314.791C477.037 313.971 479.077 313.561 481.27 313.561Z" fill="#09090B"/>
<mask id="path-2-outside-1_88_171" maskUnits="userSpaceOnUse" x="92" y="366.418" width="308" height="26" fill="black">
<rect fill="white" x="92" y="366.418" width="308" height="26"/>
<path d="M102.538 389.383C103.689 389.383 104.685 389.224 105.527 388.906C106.379 388.588 106.982 388.279 107.337 387.98L108.39 390.043C107.969 390.417 107.235 390.796 106.187 391.179C105.148 391.563 103.9 391.755 102.44 391.755C101.074 391.755 99.8067 391.512 98.6374 391.025C97.468 390.539 96.4436 389.86 95.5642 388.99C94.6942 388.12 94.0113 387.105 93.5155 385.945C93.029 384.785 92.7858 383.532 92.7858 382.185C92.7858 380.837 93.029 379.579 93.5155 378.41C94.002 377.24 94.6802 376.221 95.5502 375.351C96.4296 374.471 97.454 373.789 98.6233 373.302C99.8021 372.806 101.074 372.558 102.44 372.558C103.9 372.558 105.148 372.75 106.187 373.134C107.235 373.517 107.969 373.896 108.39 374.27L107.337 376.333C106.982 376.024 106.379 375.716 105.527 375.407C104.685 375.089 103.689 374.93 102.538 374.93C101.491 374.93 100.532 375.108 99.6617 375.463C98.7917 375.819 98.034 376.324 97.3885 376.979C96.7523 377.624 96.2565 378.386 95.901 379.266C95.5549 380.145 95.3818 381.104 95.3818 382.143C95.3818 383.19 95.5549 384.159 95.901 385.047C96.2565 385.927 96.7523 386.694 97.3885 387.349C98.034 387.994 98.7917 388.495 99.6617 388.85C100.532 389.206 101.491 389.383 102.538 389.383ZM112.848 382.143C112.848 383.518 113.133 384.757 113.704 385.861C114.284 386.965 115.079 387.844 116.089 388.499C117.099 389.145 118.259 389.467 119.569 389.467C120.888 389.467 122.048 389.145 123.049 388.499C124.06 387.844 124.85 386.965 125.421 385.861C125.991 384.757 126.277 383.518 126.277 382.143C126.277 380.767 125.991 379.532 125.421 378.438C124.85 377.334 124.06 376.459 123.049 375.814C122.048 375.168 120.888 374.846 119.569 374.846C118.259 374.846 117.099 375.168 116.089 375.814C115.079 376.459 114.284 377.334 113.704 378.438C113.133 379.532 112.848 380.767 112.848 382.143ZM110.364 382.143C110.364 380.795 110.593 379.542 111.051 378.382C111.519 377.212 112.169 376.193 113.002 375.323C113.835 374.453 114.808 373.774 115.921 373.288C117.043 372.802 118.259 372.558 119.569 372.558C120.888 372.558 122.104 372.802 123.218 373.288C124.34 373.774 125.313 374.453 126.136 375.323C126.969 376.193 127.614 377.212 128.073 378.382C128.531 379.542 128.76 380.795 128.76 382.143C128.76 383.499 128.531 384.762 128.073 385.931C127.624 387.091 126.983 388.111 126.15 388.99C125.327 389.86 124.359 390.539 123.246 391.025C122.132 391.512 120.907 391.755 119.569 391.755C118.231 391.755 116.997 391.512 115.865 391.025C114.742 390.539 113.769 389.86 112.946 388.99C112.123 388.111 111.486 387.091 111.037 385.931C110.588 384.762 110.364 383.499 110.364 382.143ZM131.557 372.895H138.026C139.027 372.895 139.935 373.106 140.749 373.527C141.572 373.938 142.227 374.546 142.713 375.351C143.209 376.146 143.457 377.119 143.457 378.27C143.457 379.411 143.228 380.356 142.769 381.104C142.32 381.853 141.778 382.418 141.141 382.802C140.505 383.176 139.916 383.382 139.373 383.419L143.962 391.418H141.24L136.946 383.588H133.957V391.418H131.557V372.895ZM133.957 381.806H137.184C138.288 381.806 139.2 381.53 139.921 380.978C140.641 380.426 141.001 379.542 141.001 378.326C141.001 377.11 140.641 376.235 139.921 375.702C139.21 375.168 138.302 374.902 137.198 374.902H133.957V381.806ZM147.125 372.895H153.594C154.595 372.895 155.502 373.106 156.316 373.527C157.139 373.938 157.794 374.546 158.28 375.351C158.776 376.146 159.024 377.119 159.024 378.27C159.024 379.411 158.795 380.356 158.337 381.104C157.887 381.853 157.345 382.418 156.709 382.802C156.073 383.176 155.483 383.382 154.941 383.419L159.529 391.418H156.807L152.513 383.588H149.524V391.418H147.125V372.895ZM149.524 381.806H152.752C153.855 381.806 154.768 381.53 155.488 380.978C156.208 380.426 156.568 379.542 156.568 378.326C156.568 377.11 156.208 376.235 155.488 375.702C154.777 375.168 153.87 374.902 152.766 374.902H149.524V381.806ZM162.706 372.895H173.651V375.07H165.077V381.076H173.483V383.195H165.077V389.243H173.651V391.418H162.706V372.895ZM181.268 375.07H176.272V372.895H188.677V375.07H183.681V391.418H181.268V375.07ZM192.164 382.143C192.164 383.518 192.449 384.757 193.02 385.861C193.6 386.965 194.395 387.844 195.405 388.499C196.416 389.145 197.576 389.467 198.886 389.467C200.205 389.467 201.365 389.145 202.366 388.499C203.376 387.844 204.166 386.965 204.737 385.861C205.308 384.757 205.593 383.518 205.593 382.143C205.593 380.767 205.308 379.532 204.737 378.438C204.166 377.334 203.376 376.459 202.366 375.814C201.365 375.168 200.205 374.846 198.886 374.846C197.576 374.846 196.416 375.168 195.405 375.814C194.395 376.459 193.6 377.334 193.02 378.438C192.449 379.532 192.164 380.767 192.164 382.143ZM189.68 382.143C189.68 380.795 189.909 379.542 190.368 378.382C190.836 377.212 191.486 376.193 192.318 375.323C193.151 374.453 194.124 373.774 195.237 373.288C196.36 372.802 197.576 372.558 198.886 372.558C200.205 372.558 201.421 372.802 202.534 373.288C203.657 373.774 204.629 374.453 205.453 375.323C206.285 376.193 206.931 377.212 207.389 378.382C207.848 379.542 208.077 380.795 208.077 382.143C208.077 383.499 207.848 384.762 207.389 385.931C206.94 387.091 206.299 388.111 205.467 388.99C204.644 389.86 203.675 390.539 202.562 391.025C201.449 391.512 200.223 391.755 198.886 391.755C197.548 391.755 196.313 391.512 195.181 391.025C194.058 390.539 193.085 389.86 192.262 388.99C191.439 388.111 190.803 387.091 190.354 385.931C189.905 384.762 189.68 383.499 189.68 382.143ZM210.874 372.895H217.343C218.344 372.895 219.251 373.106 220.065 373.527C220.888 373.938 221.543 374.546 222.029 375.351C222.525 376.146 222.773 377.119 222.773 378.27C222.773 379.411 222.544 380.356 222.086 381.104C221.637 381.853 221.094 382.418 220.458 382.802C219.822 383.176 219.232 383.382 218.69 383.419L223.278 391.418H220.556L216.262 383.588H213.273V391.418H210.874V372.895ZM213.273 381.806H216.501C217.605 381.806 218.517 381.53 219.237 380.978C219.957 380.426 220.318 379.542 220.318 378.326C220.318 377.11 219.957 376.235 219.237 375.702C218.526 375.168 217.619 374.902 216.515 374.902H213.273V381.806ZM226.455 372.895H237.4V375.07H228.826V381.076H237.232V383.195H228.826V389.243H237.4V391.418H226.455V372.895ZM246.953 372.558C248.02 372.558 248.937 372.68 249.704 372.923C250.48 373.166 251.088 373.424 251.528 373.695C251.977 373.966 252.244 374.144 252.328 374.228L251.093 376.207C250.953 376.085 250.705 375.912 250.349 375.688C249.994 375.454 249.549 375.248 249.016 375.07C248.483 374.883 247.875 374.789 247.192 374.789C246.135 374.789 245.297 375.005 244.68 375.435C244.072 375.856 243.768 376.455 243.768 377.231C243.768 377.755 243.927 378.218 244.245 378.62C244.572 379.013 245.031 379.373 245.62 379.701C246.21 380.028 246.897 380.365 247.683 380.711C248.328 380.982 248.96 381.291 249.577 381.637C250.204 381.983 250.77 382.39 251.275 382.858C251.79 383.326 252.197 383.869 252.496 384.486C252.805 385.103 252.959 385.814 252.959 386.619C252.959 387.414 252.795 388.13 252.468 388.766C252.15 389.402 251.696 389.945 251.107 390.394C250.527 390.833 249.849 391.17 249.072 391.404C248.296 391.638 247.458 391.755 246.56 391.755C245.428 391.755 244.404 391.614 243.487 391.334C242.58 391.053 241.845 390.758 241.284 390.45C240.732 390.141 240.414 389.949 240.33 389.874L241.635 387.812C241.747 387.905 241.953 388.045 242.252 388.233C242.552 388.41 242.921 388.597 243.361 388.794C243.801 388.99 244.296 389.159 244.848 389.299C245.4 389.43 245.99 389.496 246.617 389.496C247.87 389.496 248.82 389.215 249.465 388.654C250.111 388.092 250.433 387.372 250.433 386.493C250.433 385.819 250.228 385.239 249.816 384.753C249.404 384.266 248.857 383.831 248.174 383.448C247.491 383.064 246.738 382.694 245.915 382.339C245.073 381.955 244.301 381.534 243.6 381.076C242.898 380.618 242.332 380.07 241.902 379.434C241.481 378.789 241.27 378.012 241.27 377.105C241.27 376.207 241.523 375.416 242.028 374.733C242.542 374.05 243.23 373.517 244.091 373.134C244.961 372.75 245.915 372.558 246.953 372.558ZM262.946 372.895H267.31C269.284 372.895 270.907 373.293 272.179 374.088C273.461 374.874 274.41 375.964 275.028 377.357C275.645 378.751 275.954 380.346 275.954 382.143C275.954 383.948 275.645 385.548 275.028 386.942C274.41 388.336 273.466 389.43 272.193 390.225C270.921 391.02 269.293 391.418 267.31 391.418H262.946V372.895ZM265.331 375.084V389.229H267.114C268.573 389.229 269.766 388.925 270.692 388.317C271.618 387.709 272.301 386.876 272.741 385.819C273.19 384.753 273.419 383.536 273.428 382.171C273.428 380.795 273.208 379.579 272.769 378.522C272.329 377.456 271.641 376.618 270.706 376.01C269.77 375.393 268.573 375.084 267.114 375.084H265.331ZM279.022 372.895H289.967V375.07H281.393V381.076H289.799V383.195H281.393V389.243H289.967V391.418H279.022V372.895ZM300.952 372.895H303.366V391.418H300.952V372.895ZM324.061 372.895V391.418H321.675V378.045L321.802 375.996L321.296 378.256L316.834 390.366H314.463L310 378.256L309.509 375.996L309.621 378.045V391.418H307.222V372.895H310.421L315.473 387.433L315.641 388.373L315.824 387.433L320.89 372.895H324.061ZM329.556 382.143C329.556 383.518 329.841 384.757 330.412 385.861C330.992 386.965 331.787 387.844 332.798 388.499C333.808 389.145 334.968 389.467 336.278 389.467C337.597 389.467 338.757 389.145 339.758 388.499C340.768 387.844 341.559 386.965 342.129 385.861C342.7 384.757 342.985 383.518 342.985 382.143C342.985 380.767 342.7 379.532 342.129 378.438C341.559 377.334 340.768 376.459 339.758 375.814C338.757 375.168 337.597 374.846 336.278 374.846C334.968 374.846 333.808 375.168 332.798 375.814C331.787 376.459 330.992 377.334 330.412 378.438C329.841 379.532 329.556 380.767 329.556 382.143ZM327.072 382.143C327.072 380.795 327.302 379.542 327.76 378.382C328.228 377.212 328.878 376.193 329.71 375.323C330.543 374.453 331.516 373.774 332.629 373.288C333.752 372.802 334.968 372.558 336.278 372.558C337.597 372.558 338.813 372.802 339.926 373.288C341.049 373.774 342.022 374.453 342.845 375.323C343.677 376.193 344.323 377.212 344.781 378.382C345.24 379.542 345.469 380.795 345.469 382.143C345.469 383.499 345.24 384.762 344.781 385.931C344.332 387.091 343.691 388.111 342.859 388.99C342.036 389.86 341.067 390.539 339.954 391.025C338.841 391.512 337.615 391.755 336.278 391.755C334.94 391.755 333.705 391.512 332.573 391.025C331.45 390.539 330.478 389.86 329.654 388.99C328.831 388.111 328.195 387.091 327.746 385.931C327.297 384.762 327.072 383.499 327.072 382.143ZM335.169 372.109L334.299 370.945L338.579 367.422L339.954 369.162L335.169 372.109ZM356.573 391.418H353.738L346.961 372.895H349.669L355.156 388.499L360.67 372.895H363.365L356.573 391.418ZM365.82 372.895H376.766V375.07H368.192V381.076H376.597V383.195H368.192V389.243H376.766V391.418H365.82V372.895ZM380.762 372.895H383.175V391.418H380.762V372.895ZM392.869 372.558C393.936 372.558 394.852 372.68 395.619 372.923C396.396 373.166 397.004 373.424 397.444 373.695C397.893 373.966 398.159 374.144 398.244 374.228L397.009 376.207C396.868 376.085 396.62 375.912 396.265 375.688C395.909 375.454 395.465 375.248 394.932 375.07C394.399 374.883 393.791 374.789 393.108 374.789C392.051 374.789 391.213 375.005 390.596 375.435C389.988 375.856 389.684 376.455 389.684 377.231C389.684 377.755 389.843 378.218 390.161 378.62C390.488 379.013 390.947 379.373 391.536 379.701C392.125 380.028 392.813 380.365 393.599 380.711C394.244 380.982 394.876 381.291 395.493 381.637C396.12 381.983 396.686 382.39 397.191 382.858C397.706 383.326 398.113 383.869 398.412 384.486C398.721 385.103 398.875 385.814 398.875 386.619C398.875 387.414 398.711 388.13 398.384 388.766C398.066 389.402 397.612 389.945 397.023 390.394C396.443 390.833 395.764 391.17 394.988 391.404C394.212 391.638 393.374 391.755 392.476 391.755C391.344 391.755 390.32 391.614 389.403 391.334C388.496 391.053 387.761 390.758 387.2 390.45C386.648 390.141 386.33 389.949 386.246 389.874L387.551 387.812C387.663 387.905 387.869 388.045 388.168 388.233C388.468 388.41 388.837 388.597 389.277 388.794C389.716 388.99 390.212 389.159 390.764 389.299C391.316 389.43 391.906 389.496 392.532 389.496C393.786 389.496 394.735 389.215 395.381 388.654C396.026 388.092 396.349 387.372 396.349 386.493C396.349 385.819 396.143 385.239 395.732 384.753C395.32 384.266 394.773 383.831 394.09 383.448C393.407 383.064 392.654 382.694 391.831 382.339C390.989 381.955 390.217 381.534 389.515 381.076C388.814 380.618 388.248 380.07 387.817 379.434C387.396 378.789 387.186 378.012 387.186 377.105C387.186 376.207 387.439 375.416 387.944 374.733C388.458 374.05 389.146 373.517 390.006 373.134C390.876 372.75 391.831 372.558 392.869 372.558Z"/>
</mask>
<path d="M102.538 389.383C103.689 389.383 104.685 389.224 105.527 388.906C106.379 388.588 106.982 388.279 107.337 387.98L108.39 390.043C107.969 390.417 107.235 390.796 106.187 391.179C105.148 391.563 103.9 391.755 102.44 391.755C101.074 391.755 99.8067 391.512 98.6374 391.025C97.468 390.539 96.4436 389.86 95.5642 388.99C94.6942 388.12 94.0113 387.105 93.5155 385.945C93.029 384.785 92.7858 383.532 92.7858 382.185C92.7858 380.837 93.029 379.579 93.5155 378.41C94.002 377.24 94.6802 376.221 95.5502 375.351C96.4296 374.471 97.454 373.789 98.6233 373.302C99.8021 372.806 101.074 372.558 102.44 372.558C103.9 372.558 105.148 372.75 106.187 373.134C107.235 373.517 107.969 373.896 108.39 374.27L107.337 376.333C106.982 376.024 106.379 375.716 105.527 375.407C104.685 375.089 103.689 374.93 102.538 374.93C101.491 374.93 100.532 375.108 99.6617 375.463C98.7917 375.819 98.034 376.324 97.3885 376.979C96.7523 377.624 96.2565 378.386 95.901 379.266C95.5549 380.145 95.3818 381.104 95.3818 382.143C95.3818 383.19 95.5549 384.159 95.901 385.047C96.2565 385.927 96.7523 386.694 97.3885 387.349C98.034 387.994 98.7917 388.495 99.6617 388.85C100.532 389.206 101.491 389.383 102.538 389.383ZM112.848 382.143C112.848 383.518 113.133 384.757 113.704 385.861C114.284 386.965 115.079 387.844 116.089 388.499C117.099 389.145 118.259 389.467 119.569 389.467C120.888 389.467 122.048 389.145 123.049 388.499C124.06 387.844 124.85 386.965 125.421 385.861C125.991 384.757 126.277 383.518 126.277 382.143C126.277 380.767 125.991 379.532 125.421 378.438C124.85 377.334 124.06 376.459 123.049 375.814C122.048 375.168 120.888 374.846 119.569 374.846C118.259 374.846 117.099 375.168 116.089 375.814C115.079 376.459 114.284 377.334 113.704 378.438C113.133 379.532 112.848 380.767 112.848 382.143ZM110.364 382.143C110.364 380.795 110.593 379.542 111.051 378.382C111.519 377.212 112.169 376.193 113.002 375.323C113.835 374.453 114.808 373.774 115.921 373.288C117.043 372.802 118.259 372.558 119.569 372.558C120.888 372.558 122.104 372.802 123.218 373.288C124.34 373.774 125.313 374.453 126.136 375.323C126.969 376.193 127.614 377.212 128.073 378.382C128.531 379.542 128.76 380.795 128.76 382.143C128.76 383.499 128.531 384.762 128.073 385.931C127.624 387.091 126.983 388.111 126.15 388.99C125.327 389.86 124.359 390.539 123.246 391.025C122.132 391.512 120.907 391.755 119.569 391.755C118.231 391.755 116.997 391.512 115.865 391.025C114.742 390.539 113.769 389.86 112.946 388.99C112.123 388.111 111.486 387.091 111.037 385.931C110.588 384.762 110.364 383.499 110.364 382.143ZM131.557 372.895H138.026C139.027 372.895 139.935 373.106 140.749 373.527C141.572 373.938 142.227 374.546 142.713 375.351C143.209 376.146 143.457 377.119 143.457 378.27C143.457 379.411 143.228 380.356 142.769 381.104C142.32 381.853 141.778 382.418 141.141 382.802C140.505 383.176 139.916 383.382 139.373 383.419L143.962 391.418H141.24L136.946 383.588H133.957V391.418H131.557V372.895ZM133.957 381.806H137.184C138.288 381.806 139.2 381.53 139.921 380.978C140.641 380.426 141.001 379.542 141.001 378.326C141.001 377.11 140.641 376.235 139.921 375.702C139.21 375.168 138.302 374.902 137.198 374.902H133.957V381.806ZM147.125 372.895H153.594C154.595 372.895 155.502 373.106 156.316 373.527C157.139 373.938 157.794 374.546 158.28 375.351C158.776 376.146 159.024 377.119 159.024 378.27C159.024 379.411 158.795 380.356 158.337 381.104C157.887 381.853 157.345 382.418 156.709 382.802C156.073 383.176 155.483 383.382 154.941 383.419L159.529 391.418H156.807L152.513 383.588H149.524V391.418H147.125V372.895ZM149.524 381.806H152.752C153.855 381.806 154.768 381.53 155.488 380.978C156.208 380.426 156.568 379.542 156.568 378.326C156.568 377.11 156.208 376.235 155.488 375.702C154.777 375.168 153.87 374.902 152.766 374.902H149.524V381.806ZM162.706 372.895H173.651V375.07H165.077V381.076H173.483V383.195H165.077V389.243H173.651V391.418H162.706V372.895ZM181.268 375.07H176.272V372.895H188.677V375.07H183.681V391.418H181.268V375.07ZM192.164 382.143C192.164 383.518 192.449 384.757 193.02 385.861C193.6 386.965 194.395 387.844 195.405 388.499C196.416 389.145 197.576 389.467 198.886 389.467C200.205 389.467 201.365 389.145 202.366 388.499C203.376 387.844 204.166 386.965 204.737 385.861C205.308 384.757 205.593 383.518 205.593 382.143C205.593 380.767 205.308 379.532 204.737 378.438C204.166 377.334 203.376 376.459 202.366 375.814C201.365 375.168 200.205 374.846 198.886 374.846C197.576 374.846 196.416 375.168 195.405 375.814C194.395 376.459 193.6 377.334 193.02 378.438C192.449 379.532 192.164 380.767 192.164 382.143ZM189.68 382.143C189.68 380.795 189.909 379.542 190.368 378.382C190.836 377.212 191.486 376.193 192.318 375.323C193.151 374.453 194.124 373.774 195.237 373.288C196.36 372.802 197.576 372.558 198.886 372.558C200.205 372.558 201.421 372.802 202.534 373.288C203.657 373.774 204.629 374.453 205.453 375.323C206.285 376.193 206.931 377.212 207.389 378.382C207.848 379.542 208.077 380.795 208.077 382.143C208.077 383.499 207.848 384.762 207.389 385.931C206.94 387.091 206.299 388.111 205.467 388.99C204.644 389.86 203.675 390.539 202.562 391.025C201.449 391.512 200.223 391.755 198.886 391.755C197.548 391.755 196.313 391.512 195.181 391.025C194.058 390.539 193.085 389.86 192.262 388.99C191.439 388.111 190.803 387.091 190.354 385.931C189.905 384.762 189.68 383.499 189.68 382.143ZM210.874 372.895H217.343C218.344 372.895 219.251 373.106 220.065 373.527C220.888 373.938 221.543 374.546 222.029 375.351C222.525 376.146 222.773 377.119 222.773 378.27C222.773 379.411 222.544 380.356 222.086 381.104C221.637 381.853 221.094 382.418 220.458 382.802C219.822 383.176 219.232 383.382 218.69 383.419L223.278 391.418H220.556L216.262 383.588H213.273V391.418H210.874V372.895ZM213.273 381.806H216.501C217.605 381.806 218.517 381.53 219.237 380.978C219.957 380.426 220.318 379.542 220.318 378.326C220.318 377.11 219.957 376.235 219.237 375.702C218.526 375.168 217.619 374.902 216.515 374.902H213.273V381.806ZM226.455 372.895H237.4V375.07H228.826V381.076H237.232V383.195H228.826V389.243H237.4V391.418H226.455V372.895ZM246.953 372.558C248.02 372.558 248.937 372.68 249.704 372.923C250.48 373.166 251.088 373.424 251.528 373.695C251.977 373.966 252.244 374.144 252.328 374.228L251.093 376.207C250.953 376.085 250.705 375.912 250.349 375.688C249.994 375.454 249.549 375.248 249.016 375.07C248.483 374.883 247.875 374.789 247.192 374.789C246.135 374.789 245.297 375.005 244.68 375.435C244.072 375.856 243.768 376.455 243.768 377.231C243.768 377.755 243.927 378.218 244.245 378.62C244.572 379.013 245.031 379.373 245.62 379.701C246.21 380.028 246.897 380.365 247.683 380.711C248.328 380.982 248.96 381.291 249.577 381.637C250.204 381.983 250.77 382.39 251.275 382.858C251.79 383.326 252.197 383.869 252.496 384.486C252.805 385.103 252.959 385.814 252.959 386.619C252.959 387.414 252.795 388.13 252.468 388.766C252.15 389.402 251.696 389.945 251.107 390.394C250.527 390.833 249.849 391.17 249.072 391.404C248.296 391.638 247.458 391.755 246.56 391.755C245.428 391.755 244.404 391.614 243.487 391.334C242.58 391.053 241.845 390.758 241.284 390.45C240.732 390.141 240.414 389.949 240.33 389.874L241.635 387.812C241.747 387.905 241.953 388.045 242.252 388.233C242.552 388.41 242.921 388.597 243.361 388.794C243.801 388.99 244.296 389.159 244.848 389.299C245.4 389.43 245.99 389.496 246.617 389.496C247.87 389.496 248.82 389.215 249.465 388.654C250.111 388.092 250.433 387.372 250.433 386.493C250.433 385.819 250.228 385.239 249.816 384.753C249.404 384.266 248.857 383.831 248.174 383.448C247.491 383.064 246.738 382.694 245.915 382.339C245.073 381.955 244.301 381.534 243.6 381.076C242.898 380.618 242.332 380.07 241.902 379.434C241.481 378.789 241.27 378.012 241.27 377.105C241.27 376.207 241.523 375.416 242.028 374.733C242.542 374.05 243.23 373.517 244.091 373.134C244.961 372.75 245.915 372.558 246.953 372.558ZM262.946 372.895H267.31C269.284 372.895 270.907 373.293 272.179 374.088C273.461 374.874 274.41 375.964 275.028 377.357C275.645 378.751 275.954 380.346 275.954 382.143C275.954 383.948 275.645 385.548 275.028 386.942C274.41 388.336 273.466 389.43 272.193 390.225C270.921 391.02 269.293 391.418 267.31 391.418H262.946V372.895ZM265.331 375.084V389.229H267.114C268.573 389.229 269.766 388.925 270.692 388.317C271.618 387.709 272.301 386.876 272.741 385.819C273.19 384.753 273.419 383.536 273.428 382.171C273.428 380.795 273.208 379.579 272.769 378.522C272.329 377.456 271.641 376.618 270.706 376.01C269.77 375.393 268.573 375.084 267.114 375.084H265.331ZM279.022 372.895H289.967V375.07H281.393V381.076H289.799V383.195H281.393V389.243H289.967V391.418H279.022V372.895ZM300.952 372.895H303.366V391.418H300.952V372.895ZM324.061 372.895V391.418H321.675V378.045L321.802 375.996L321.296 378.256L316.834 390.366H314.463L310 378.256L309.509 375.996L309.621 378.045V391.418H307.222V372.895H310.421L315.473 387.433L315.641 388.373L315.824 387.433L320.89 372.895H324.061ZM329.556 382.143C329.556 383.518 329.841 384.757 330.412 385.861C330.992 386.965 331.787 387.844 332.798 388.499C333.808 389.145 334.968 389.467 336.278 389.467C337.597 389.467 338.757 389.145 339.758 388.499C340.768 387.844 341.559 386.965 342.129 385.861C342.7 384.757 342.985 383.518 342.985 382.143C342.985 380.767 342.7 379.532 342.129 378.438C341.559 377.334 340.768 376.459 339.758 375.814C338.757 375.168 337.597 374.846 336.278 374.846C334.968 374.846 333.808 375.168 332.798 375.814C331.787 376.459 330.992 377.334 330.412 378.438C329.841 379.532 329.556 380.767 329.556 382.143ZM327.072 382.143C327.072 380.795 327.302 379.542 327.76 378.382C328.228 377.212 328.878 376.193 329.71 375.323C330.543 374.453 331.516 373.774 332.629 373.288C333.752 372.802 334.968 372.558 336.278 372.558C337.597 372.558 338.813 372.802 339.926 373.288C341.049 373.774 342.022 374.453 342.845 375.323C343.677 376.193 344.323 377.212 344.781 378.382C345.24 379.542 345.469 380.795 345.469 382.143C345.469 383.499 345.24 384.762 344.781 385.931C344.332 387.091 343.691 388.111 342.859 388.99C342.036 389.86 341.067 390.539 339.954 391.025C338.841 391.512 337.615 391.755 336.278 391.755C334.94 391.755 333.705 391.512 332.573 391.025C331.45 390.539 330.478 389.86 329.654 388.99C328.831 388.111 328.195 387.091 327.746 385.931C327.297 384.762 327.072 383.499 327.072 382.143ZM335.169 372.109L334.299 370.945L338.579 367.422L339.954 369.162L335.169 372.109ZM356.573 391.418H353.738L346.961 372.895H349.669L355.156 388.499L360.67 372.895H363.365L356.573 391.418ZM365.82 372.895H376.766V375.07H368.192V381.076H376.597V383.195H368.192V389.243H376.766V391.418H365.82V372.895ZM380.762 372.895H383.175V391.418H380.762V372.895ZM392.869 372.558C393.936 372.558 394.852 372.68 395.619 372.923C396.396 373.166 397.004 373.424 397.444 373.695C397.893 373.966 398.159 374.144 398.244 374.228L397.009 376.207C396.868 376.085 396.62 375.912 396.265 375.688C395.909 375.454 395.465 375.248 394.932 375.07C394.399 374.883 393.791 374.789 393.108 374.789C392.051 374.789 391.213 375.005 390.596 375.435C389.988 375.856 389.684 376.455 389.684 377.231C389.684 377.755 389.843 378.218 390.161 378.62C390.488 379.013 390.947 379.373 391.536 379.701C392.125 380.028 392.813 380.365 393.599 380.711C394.244 380.982 394.876 381.291 395.493 381.637C396.12 381.983 396.686 382.39 397.191 382.858C397.706 383.326 398.113 383.869 398.412 384.486C398.721 385.103 398.875 385.814 398.875 386.619C398.875 387.414 398.711 388.13 398.384 388.766C398.066 389.402 397.612 389.945 397.023 390.394C396.443 390.833 395.764 391.17 394.988 391.404C394.212 391.638 393.374 391.755 392.476 391.755C391.344 391.755 390.32 391.614 389.403 391.334C388.496 391.053 387.761 390.758 387.2 390.45C386.648 390.141 386.33 389.949 386.246 389.874L387.551 387.812C387.663 387.905 387.869 388.045 388.168 388.233C388.468 388.41 388.837 388.597 389.277 388.794C389.716 388.99 390.212 389.159 390.764 389.299C391.316 389.43 391.906 389.496 392.532 389.496C393.786 389.496 394.735 389.215 395.381 388.654C396.026 388.092 396.349 387.372 396.349 386.493C396.349 385.819 396.143 385.239 395.732 384.753C395.32 384.266 394.773 383.831 394.09 383.448C393.407 383.064 392.654 382.694 391.831 382.339C390.989 381.955 390.217 381.534 389.515 381.076C388.814 380.618 388.248 380.07 387.817 379.434C387.396 378.789 387.186 378.012 387.186 377.105C387.186 376.207 387.439 375.416 387.944 374.733C388.458 374.05 389.146 373.517 390.006 373.134C390.876 372.75 391.831 372.558 392.869 372.558Z" fill="#FF8100"/>
<path d="M105.527 388.906L105.352 388.438L105.351 388.438L105.527 388.906ZM107.337 387.98L107.783 387.753L107.497 387.192L107.015 387.598L107.337 387.98ZM108.39 390.043L108.722 390.416L109.011 390.16L108.835 389.816L108.39 390.043ZM106.187 391.179L106.015 390.71L106.014 390.71L106.187 391.179ZM98.6374 391.025L98.4453 391.487L98.6374 391.025ZM95.5642 388.99L95.2107 389.344L95.2126 389.346L95.5642 388.99ZM93.5155 385.945L93.0544 386.139L93.0557 386.142L93.5155 385.945ZM93.5155 378.41L93.0539 378.218L93.5155 378.41ZM95.5502 375.351L95.1967 374.997L95.5502 375.351ZM98.6233 373.302L98.8154 373.764L98.8172 373.763L98.6233 373.302ZM106.187 373.134L106.014 373.603L106.015 373.603L106.187 373.134ZM108.39 374.27L108.835 374.498L109.011 374.153L108.722 373.897L108.39 374.27ZM107.337 376.333L107.01 376.711L107.492 377.13L107.783 376.56L107.337 376.333ZM105.527 375.407L105.351 375.875L105.357 375.877L105.527 375.407ZM99.6617 375.463L99.4726 375H99.4726L99.6617 375.463ZM97.3885 376.979L97.0324 376.628L97.0323 376.628L97.3885 376.979ZM95.901 379.266L95.4375 379.078L95.4358 379.083L95.901 379.266ZM95.901 385.047L95.4351 385.229L95.4375 385.235L95.901 385.047ZM97.3885 387.349L97.0298 387.697L97.0349 387.702L97.3885 387.349ZM99.6617 388.85L99.4726 389.313H99.4726L99.6617 388.85ZM102.538 389.883C103.733 389.883 104.792 389.718 105.704 389.374L105.351 388.438C104.578 388.73 103.645 388.883 102.538 388.883V389.883ZM105.702 389.375C106.566 389.052 107.236 388.719 107.66 388.362L107.015 387.598C106.728 387.84 106.191 388.124 105.352 388.438L105.702 389.375ZM106.892 388.207L107.945 390.27L108.835 389.816L107.783 387.753L106.892 388.207ZM108.058 389.669C107.71 389.978 107.05 390.331 106.015 390.71L106.359 391.649C107.419 391.261 108.228 390.856 108.722 390.416L108.058 389.669ZM106.014 390.71C105.045 391.068 103.858 391.255 102.44 391.255V392.255C103.941 392.255 105.252 392.058 106.36 391.648L106.014 390.71ZM102.44 391.255C101.135 391.255 99.9333 391.023 98.8294 390.563L98.4453 391.487C99.6802 392 101.014 392.255 102.44 392.255V391.255ZM98.8294 390.563C97.7181 390.101 96.7483 389.458 95.9159 388.635L95.2126 389.346C96.1389 390.262 97.2178 390.976 98.4453 391.487L98.8294 390.563ZM95.9178 388.637C95.094 387.813 94.4467 386.852 93.9753 385.749L93.0557 386.142C93.576 387.359 94.2944 388.428 95.2107 389.344L95.9178 388.637ZM93.9766 385.752C93.5176 384.657 93.2858 383.47 93.2858 382.185H92.2858C92.2858 383.593 92.5405 384.913 93.0544 386.139L93.9766 385.752ZM93.2858 382.185C93.2858 380.899 93.5176 379.707 93.9772 378.602L93.0539 378.218C92.5405 379.452 92.2858 380.776 92.2858 382.185H93.2858ZM93.9772 378.602C94.4392 377.491 95.0814 376.527 95.9038 375.704L95.1967 374.997C94.279 375.915 93.5647 376.99 93.0539 378.218L93.9772 378.602ZM95.9038 375.704C96.736 374.872 97.7052 374.226 98.8154 373.764L98.4313 372.84C97.2027 373.352 96.1231 374.071 95.1967 374.997L95.9038 375.704ZM98.8172 373.763C99.9304 373.295 101.136 373.058 102.44 373.058V372.058C101.012 372.058 99.6737 372.318 98.4295 372.841L98.8172 373.763ZM102.44 373.058C103.858 373.058 105.045 373.245 106.014 373.603L106.36 372.665C105.252 372.255 103.941 372.058 102.44 372.058V373.058ZM106.015 373.603C107.05 373.982 107.71 374.335 108.058 374.644L108.722 373.897C108.228 373.457 107.419 373.052 106.359 372.664L106.015 373.603ZM107.945 374.043L106.892 376.106L107.783 376.56L108.835 374.498L107.945 374.043ZM107.665 375.956C107.238 375.585 106.564 375.251 105.698 374.937L105.357 375.877C106.194 376.18 106.726 376.464 107.01 376.711L107.665 375.956ZM105.704 374.939C104.792 374.595 103.733 374.43 102.538 374.43V375.43C103.645 375.43 104.578 375.583 105.351 375.875L105.704 374.939ZM102.538 374.43C101.433 374.43 100.409 374.618 99.4726 375L99.8509 375.926C100.654 375.598 101.548 375.43 102.538 375.43V374.43ZM99.4726 375C98.5414 375.381 97.7265 375.923 97.0324 376.628L97.7446 377.33C98.3415 376.724 99.0421 376.256 99.8509 375.926L99.4726 375ZM97.0323 376.628C96.3478 377.322 95.8165 378.141 95.4375 379.078L96.3646 379.453C96.6966 378.632 97.1568 377.926 97.7446 377.33L97.0323 376.628ZM95.4358 379.083C95.0645 380.026 94.8818 381.048 94.8818 382.143H95.8818C95.8818 381.161 96.0453 380.265 96.3663 379.449L95.4358 379.083ZM94.8818 382.143C94.8818 383.246 95.0643 384.277 95.4351 385.229L96.3669 384.866C96.0455 384.04 95.8818 383.134 95.8818 382.143H94.8818ZM95.4375 385.235C95.8162 386.172 96.3469 386.994 97.0298 387.697L97.7471 387C97.1578 386.393 96.6968 385.682 96.3646 384.86L95.4375 385.235ZM97.0349 387.702C97.7288 388.396 98.5429 388.933 99.4726 389.313L99.8509 388.387C99.0405 388.056 98.3391 387.592 97.742 386.995L97.0349 387.702ZM99.4726 389.313C100.409 389.696 101.433 389.883 102.538 389.883V388.883C101.548 388.883 100.654 388.715 99.8509 388.387L99.4726 389.313ZM113.704 385.861L113.259 386.091L113.261 386.094L113.704 385.861ZM116.089 388.499L115.817 388.919L115.82 388.921L116.089 388.499ZM123.049 388.499L123.32 388.919L123.321 388.919L123.049 388.499ZM125.421 385.861L124.977 385.632V385.632L125.421 385.861ZM125.421 378.438L124.977 378.668L124.977 378.669L125.421 378.438ZM123.049 375.814L122.778 376.234L122.78 376.235L123.049 375.814ZM116.089 375.814L115.82 375.393L116.089 375.814ZM113.704 378.438L113.261 378.205L113.26 378.207L113.704 378.438ZM111.051 378.382L110.587 378.196L110.586 378.198L111.051 378.382ZM113.002 375.323L112.641 374.977V374.977L113.002 375.323ZM115.921 373.288L115.722 372.829L115.721 372.83L115.921 373.288ZM123.218 373.288L123.017 373.746L123.019 373.747L123.218 373.288ZM126.136 375.323L125.773 375.666L125.775 375.668L126.136 375.323ZM128.073 378.382L127.607 378.564L127.608 378.566L128.073 378.382ZM128.073 385.931L127.607 385.749L127.607 385.751L128.073 385.931ZM126.15 388.99L125.787 388.647L125.787 388.647L126.15 388.99ZM123.246 391.025L123.446 391.483L123.246 391.025ZM115.865 391.025L115.666 391.484L115.667 391.484L115.865 391.025ZM112.946 388.99L112.581 389.332L112.583 389.334L112.946 388.99ZM111.037 385.931L110.571 386.111L110.571 386.112L111.037 385.931ZM112.348 382.143C112.348 383.589 112.648 384.909 113.259 386.091L114.148 385.632C113.618 384.606 113.348 383.446 113.348 382.143H112.348ZM113.261 386.094C113.879 387.271 114.732 388.216 115.817 388.919L116.361 388.08C115.425 387.473 114.688 386.659 114.146 385.629L113.261 386.094ZM115.82 388.921C116.918 389.622 118.173 389.967 119.569 389.967V388.967C118.346 388.967 117.281 388.667 116.358 388.078L115.82 388.921ZM119.569 389.967C120.974 389.967 122.23 389.623 123.32 388.919L122.778 388.079C121.867 388.667 120.803 388.967 119.569 388.967V389.967ZM123.321 388.919C124.407 388.215 125.256 387.269 125.865 386.091L124.977 385.632C124.444 386.661 123.712 387.474 122.777 388.08L123.321 388.919ZM125.865 386.091C126.476 384.909 126.777 383.589 126.777 382.143H125.777C125.777 383.446 125.507 384.606 124.977 385.632L125.865 386.091ZM126.777 382.143C126.777 380.696 126.476 379.381 125.864 378.207L124.977 378.669C125.507 379.684 125.777 380.838 125.777 382.143H126.777ZM125.865 378.208C125.255 377.029 124.406 376.087 123.318 375.393L122.78 376.235C123.713 376.832 124.445 377.639 124.977 378.668L125.865 378.208ZM123.32 375.394C122.23 374.691 120.974 374.346 119.569 374.346V375.346C120.803 375.346 121.867 375.646 122.778 376.234L123.32 375.394ZM119.569 374.346C118.173 374.346 116.918 374.691 115.82 375.393L116.358 376.235C117.281 375.646 118.346 375.346 119.569 375.346V374.346ZM115.82 375.393C114.733 376.087 113.88 377.028 113.261 378.205L114.146 378.67C114.688 377.64 115.424 376.832 116.358 376.235L115.82 375.393ZM113.26 378.207C112.648 379.381 112.348 380.696 112.348 382.143H113.348C113.348 380.838 113.618 379.684 114.147 378.669L113.26 378.207ZM110.864 382.143C110.864 380.853 111.083 379.663 111.516 378.566L110.586 378.198C110.103 379.421 109.864 380.738 109.864 382.143H110.864ZM111.516 378.568C111.961 377.455 112.577 376.49 113.363 375.668L112.641 374.977C111.762 375.895 111.078 376.97 110.587 378.196L111.516 378.568ZM113.363 375.668C114.15 374.847 115.068 374.206 116.121 373.746L115.721 372.83C114.547 373.343 113.519 374.059 112.641 374.977L113.363 375.668ZM116.12 373.747C117.175 373.289 118.323 373.058 119.569 373.058V372.058C118.196 372.058 116.912 372.314 115.722 372.829L116.12 373.747ZM119.569 373.058C120.825 373.058 121.973 373.29 123.017 373.746L123.418 372.83C122.236 372.314 120.951 372.058 119.569 372.058V373.058ZM123.019 373.747C124.081 374.207 124.997 374.847 125.773 375.666L126.5 374.979C125.629 374.059 124.6 373.342 123.416 372.829L123.019 373.747ZM125.775 375.668C126.561 376.489 127.172 377.453 127.607 378.564L128.538 378.199C128.057 376.972 127.377 375.896 126.498 374.977L125.775 375.668ZM127.608 378.566C128.041 379.663 128.26 380.853 128.26 382.143H129.26C129.26 380.738 129.021 379.421 128.538 378.198L127.608 378.566ZM128.26 382.143C128.26 383.442 128.041 384.642 127.607 385.749L128.538 386.114C129.021 384.882 129.26 383.556 129.26 382.143H128.26ZM127.607 385.751C127.18 386.852 126.574 387.816 125.787 388.647L126.514 389.334C127.392 388.406 128.067 387.331 128.539 386.112L127.607 385.751ZM125.787 388.647C125.011 389.467 124.098 390.107 123.045 390.567L123.446 391.483C124.62 390.97 125.644 390.253 126.514 389.334L125.787 388.647ZM123.045 390.567C122.002 391.023 120.845 391.255 119.569 391.255V392.255C120.969 392.255 122.263 392 123.446 391.483L123.045 390.567ZM119.569 391.255C118.293 391.255 117.126 391.023 116.062 390.566L115.667 391.484C116.867 392 118.169 392.255 119.569 392.255V391.255ZM116.063 390.566C115.001 390.106 114.085 389.467 113.309 388.647L112.583 389.334C113.453 390.254 114.483 390.971 115.666 391.484L116.063 390.566ZM113.311 388.649C112.533 387.818 111.93 386.853 111.504 385.751L110.571 386.112C111.043 387.33 111.712 388.404 112.581 389.332L113.311 388.649ZM111.504 385.752C111.079 384.644 110.864 383.443 110.864 382.143H109.864C109.864 383.555 110.098 384.879 110.571 386.111L111.504 385.752ZM131.557 372.895V372.395H131.057V372.895H131.557ZM140.749 373.527L140.519 373.971L140.525 373.974L140.749 373.527ZM142.713 375.351L142.285 375.61L142.289 375.615L142.713 375.351ZM142.769 381.104L142.343 380.843L142.341 380.847L142.769 381.104ZM141.141 382.802L141.395 383.233L141.4 383.23L141.141 382.802ZM139.373 383.419L139.339 382.921L138.542 382.976L138.94 383.668L139.373 383.419ZM143.962 391.418V391.918H144.825L144.396 391.169L143.962 391.418ZM141.24 391.418L140.801 391.658L140.944 391.918H141.24V391.418ZM136.946 383.588L137.384 383.347L137.242 383.088H136.946V383.588ZM133.957 383.588V383.088H133.457V383.588H133.957ZM133.957 391.418V391.918H134.457V391.418H133.957ZM131.557 391.418H131.057V391.918H131.557V391.418ZM133.957 381.806H133.457V382.306H133.957V381.806ZM139.921 380.978L140.225 381.375L139.921 380.978ZM139.921 375.702L139.621 376.102L139.623 376.103L139.921 375.702ZM133.957 374.902V374.402H133.457V374.902H133.957ZM131.557 373.395H138.026V372.395H131.557V373.395ZM138.026 373.395C138.955 373.395 139.782 373.59 140.519 373.971L140.978 373.082C140.087 372.621 139.1 372.395 138.026 372.395V373.395ZM140.525 373.974C141.262 374.342 141.847 374.884 142.285 375.61L143.141 375.092C142.607 374.209 141.882 373.534 140.972 373.079L140.525 373.974ZM142.289 375.615C142.725 376.315 142.957 377.191 142.957 378.27H143.957C143.957 377.047 143.693 375.977 143.137 375.086L142.289 375.615ZM142.957 378.27C142.957 379.346 142.741 380.193 142.343 380.843L143.196 381.365C143.715 380.518 143.957 379.476 143.957 378.27H142.957ZM142.341 380.847C141.926 381.537 141.438 382.039 140.883 382.374L141.4 383.23C142.117 382.798 142.714 382.168 143.198 381.361L142.341 380.847ZM140.888 382.371C140.296 382.719 139.782 382.89 139.339 382.921L139.408 383.918C140.05 383.874 140.715 383.633 141.395 383.233L140.888 382.371ZM138.94 383.668L143.528 391.667L144.396 391.169L139.807 383.171L138.94 383.668ZM143.962 390.918H141.24V391.918H143.962V390.918ZM141.678 391.178L137.384 383.347L136.507 383.828L140.801 391.658L141.678 391.178ZM136.946 383.088H133.957V384.088H136.946V383.088ZM133.457 383.588V391.418H134.457V383.588H133.457ZM133.957 390.918H131.557V391.918H133.957V390.918ZM132.057 391.418V372.895H131.057V391.418H132.057ZM133.957 382.306H137.184V381.306H133.957V382.306ZM137.184 382.306C138.374 382.306 139.4 382.007 140.225 381.375L139.617 380.581C139.001 381.053 138.203 381.306 137.184 381.306V382.306ZM140.225 381.375C141.108 380.698 141.501 379.64 141.501 378.326H140.501C140.501 379.443 140.174 380.154 139.617 380.581L140.225 381.375ZM141.501 378.326C141.501 377.012 141.108 375.959 140.218 375.3L139.623 376.103C140.174 376.511 140.501 377.207 140.501 378.326H141.501ZM140.221 375.302C139.404 374.689 138.384 374.402 137.198 374.402V375.402C138.221 375.402 139.015 375.648 139.621 376.102L140.221 375.302ZM137.198 374.402H133.957V375.402H137.198V374.402ZM133.457 374.902V381.806H134.457V374.902H133.457ZM147.125 372.895V372.395H146.625V372.895H147.125ZM156.316 373.527L156.086 373.971L156.092 373.974L156.316 373.527ZM158.28 375.351L157.852 375.61L157.856 375.615L158.28 375.351ZM158.337 381.104L157.91 380.843L157.908 380.847L158.337 381.104ZM156.709 382.802L156.962 383.233L156.967 383.23L156.709 382.802ZM154.941 383.419L154.906 382.921L154.11 382.976L154.507 383.668L154.941 383.419ZM159.529 391.418V391.918H160.393L159.963 391.169L159.529 391.418ZM156.807 391.418L156.369 391.658L156.511 391.918H156.807V391.418ZM152.513 383.588L152.951 383.347L152.809 383.088H152.513V383.588ZM149.524 383.588V383.088H149.024V383.588H149.524ZM149.524 391.418V391.918H150.024V391.418H149.524ZM147.125 391.418H146.625V391.918H147.125V391.418ZM149.524 381.806H149.024V382.306H149.524V381.806ZM155.488 380.978L155.792 381.375L155.488 380.978ZM155.488 375.702L155.188 376.102L155.19 376.103L155.488 375.702ZM149.524 374.902V374.402H149.024V374.902H149.524ZM147.125 373.395H153.594V372.395H147.125V373.395ZM153.594 373.395C154.522 373.395 155.35 373.59 156.086 373.971L156.546 373.082C155.654 372.621 154.667 372.395 153.594 372.395V373.395ZM156.092 373.974C156.829 374.342 157.414 374.884 157.853 375.61L158.708 375.092C158.174 374.209 157.449 373.534 156.539 373.079L156.092 373.974ZM157.856 375.615C158.292 376.315 158.524 377.191 158.524 378.27H159.524C159.524 377.047 159.26 375.977 158.705 375.086L157.856 375.615ZM158.524 378.27C158.524 379.346 158.308 380.193 157.91 380.843L158.763 381.365C159.282 380.518 159.524 379.476 159.524 378.27H158.524ZM157.908 380.847C157.493 381.537 157.005 382.039 156.451 382.374L156.967 383.23C157.684 382.798 158.282 382.168 158.765 381.361L157.908 380.847ZM156.455 382.371C155.863 382.719 155.349 382.89 154.906 382.921L154.975 383.918C155.617 383.874 156.282 383.633 156.962 383.233L156.455 382.371ZM154.507 383.668L159.096 391.667L159.963 391.169L155.374 383.171L154.507 383.668ZM159.529 390.918H156.807V391.918H159.529V390.918ZM157.245 391.178L152.951 383.347L152.075 383.828L156.369 391.658L157.245 391.178ZM152.513 383.088H149.524V384.088H152.513V383.088ZM149.024 383.588V391.418H150.024V383.588H149.024ZM149.524 390.918H147.125V391.918H149.524V390.918ZM147.625 391.418V372.895H146.625V391.418H147.625ZM149.524 382.306H152.752V381.306H149.524V382.306ZM152.752 382.306C153.941 382.306 154.967 382.007 155.792 381.375L155.184 380.581C154.568 381.053 153.77 381.306 152.752 381.306V382.306ZM155.792 381.375C156.675 380.698 157.068 379.64 157.068 378.326H156.068C156.068 379.443 155.742 380.154 155.184 380.581L155.792 381.375ZM157.068 378.326C157.068 377.012 156.675 375.959 155.785 375.3L155.19 376.103C155.741 376.511 156.068 377.207 156.068 378.326H157.068ZM155.788 375.302C154.971 374.689 153.951 374.402 152.766 374.402V375.402C153.788 375.402 154.583 375.648 155.188 376.102L155.788 375.302ZM152.766 374.402H149.524V375.402H152.766V374.402ZM149.024 374.902V381.806H150.024V374.902H149.024ZM162.706 372.895V372.395H162.206V372.895H162.706ZM173.651 372.895H174.151V372.395H173.651V372.895ZM173.651 375.07V375.57H174.151V375.07H173.651ZM165.077 375.07V374.57H164.577V375.07H165.077ZM165.077 381.076H164.577V381.576H165.077V381.076ZM173.483 381.076H173.983V380.576H173.483V381.076ZM173.483 383.195V383.695H173.983V383.195H173.483ZM165.077 383.195V382.695H164.577V383.195H165.077ZM165.077 389.243H164.577V389.743H165.077V389.243ZM173.651 389.243H174.151V388.743H173.651V389.243ZM173.651 391.418V391.918H174.151V391.418H173.651ZM162.706 391.418H162.206V391.918H162.706V391.418ZM162.706 373.395H173.651V372.395H162.706V373.395ZM173.151 372.895V375.07H174.151V372.895H173.151ZM173.651 374.57H165.077V375.57H173.651V374.57ZM164.577 375.07V381.076H165.577V375.07H164.577ZM165.077 381.576H173.483V380.576H165.077V381.576ZM172.983 381.076V383.195H173.983V381.076H172.983ZM173.483 382.695H165.077V383.695H173.483V382.695ZM164.577 383.195V389.243H165.577V383.195H164.577ZM165.077 389.743H173.651V388.743H165.077V389.743ZM173.151 389.243V391.418H174.151V389.243H173.151ZM173.651 390.918H162.706V391.918H173.651V390.918ZM163.206 391.418V372.895H162.206V391.418H163.206ZM181.268 375.07H181.768V374.57H181.268V375.07ZM176.272 375.07H175.772V375.57H176.272V375.07ZM176.272 372.895V372.395H175.772V372.895H176.272ZM188.677 372.895H189.177V372.395H188.677V372.895ZM188.677 375.07V375.57H189.177V375.07H188.677ZM183.681 375.07V374.57H183.181V375.07H183.681ZM183.681 391.418V391.918H184.181V391.418H183.681ZM181.268 391.418H180.768V391.918H181.268V391.418ZM181.268 374.57H176.272V375.57H181.268V374.57ZM176.772 375.07V372.895H175.772V375.07H176.772ZM176.272 373.395H188.677V372.395H176.272V373.395ZM188.177 372.895V375.07H189.177V372.895H188.177ZM188.677 374.57H183.681V375.57H188.677V374.57ZM183.181 375.07V391.418H184.181V375.07H183.181ZM183.681 390.918H181.268V391.918H183.681V390.918ZM181.768 391.418V375.07H180.768V391.418H181.768ZM193.02 385.861L192.576 386.091L192.577 386.094L193.02 385.861ZM195.405 388.499L195.134 388.919L195.136 388.921L195.405 388.499ZM202.366 388.499L202.637 388.919L202.638 388.919L202.366 388.499ZM204.737 385.861L204.293 385.632V385.632L204.737 385.861ZM204.737 378.438L204.293 378.668L204.294 378.669L204.737 378.438ZM202.366 375.814L202.095 376.234L202.096 376.235L202.366 375.814ZM195.405 375.814L195.136 375.393L195.405 375.814ZM193.02 378.438L192.577 378.205L192.577 378.207L193.02 378.438ZM190.368 378.382L189.904 378.196L189.903 378.198L190.368 378.382ZM192.318 375.323L191.957 374.977V374.977L192.318 375.323ZM195.237 373.288L195.038 372.829L195.037 372.83L195.237 373.288ZM202.534 373.288L202.334 373.746L202.335 373.747L202.534 373.288ZM205.453 375.323L205.09 375.666L205.091 375.668L205.453 375.323ZM207.389 378.382L206.924 378.564L206.924 378.566L207.389 378.382ZM207.389 385.931L206.924 385.749L206.923 385.751L207.389 385.931ZM205.467 388.99L205.104 388.647L205.104 388.647L205.467 388.99ZM202.562 391.025L202.762 391.483L202.562 391.025ZM195.181 391.025L194.982 391.484L194.984 391.484L195.181 391.025ZM192.262 388.99L191.897 389.332L191.899 389.334L192.262 388.99ZM190.354 385.931L189.887 386.111L189.888 386.112L190.354 385.931ZM191.664 382.143C191.664 383.589 191.965 384.909 192.576 386.091L193.464 385.632C192.934 384.606 192.664 383.446 192.664 382.143H191.664ZM192.577 386.094C193.196 387.271 194.049 388.216 195.134 388.919L195.677 388.08C194.742 387.473 194.004 386.659 193.463 385.629L192.577 386.094ZM195.136 388.921C196.234 389.622 197.49 389.967 198.886 389.967V388.967C197.662 388.967 196.597 388.667 195.675 388.078L195.136 388.921ZM198.886 389.967C200.29 389.967 201.546 389.623 202.637 388.919L202.095 388.079C201.183 388.667 200.119 388.967 198.886 388.967V389.967ZM202.638 388.919C203.723 388.215 204.572 387.269 205.181 386.091L204.293 385.632C203.761 386.661 203.029 387.474 202.094 388.08L202.638 388.919ZM205.181 386.091C205.792 384.909 206.093 383.589 206.093 382.143H205.093C205.093 383.446 204.823 384.606 204.293 385.632L205.181 386.091ZM206.093 382.143C206.093 380.696 205.792 379.381 205.18 378.207L204.294 378.669C204.823 379.684 205.093 380.838 205.093 382.143H206.093ZM205.181 378.208C204.572 377.029 203.722 376.087 202.635 375.393L202.096 376.235C203.03 376.832 203.761 377.639 204.293 378.668L205.181 378.208ZM202.637 375.394C201.546 374.691 200.29 374.346 198.886 374.346V375.346C200.119 375.346 201.183 375.646 202.095 376.234L202.637 375.394ZM198.886 374.346C197.49 374.346 196.234 374.691 195.136 375.393L195.675 376.235C196.597 375.646 197.662 375.346 198.886 375.346V374.346ZM195.136 375.393C194.05 376.087 193.196 377.028 192.577 378.205L193.463 378.67C194.004 377.64 194.741 376.832 195.675 376.235L195.136 375.393ZM192.577 378.207C191.965 379.381 191.664 380.696 191.664 382.143H192.664C192.664 380.838 192.934 379.684 193.463 378.669L192.577 378.207ZM190.18 382.143C190.18 380.853 190.399 379.663 190.833 378.566L189.903 378.198C189.42 379.421 189.18 380.738 189.18 382.143H190.18ZM190.832 378.568C191.277 377.455 191.893 376.49 192.68 375.668L191.957 374.977C191.078 375.895 190.394 376.97 189.904 378.196L190.832 378.568ZM192.68 375.668C193.466 374.847 194.384 374.206 195.437 373.746L195.037 372.83C193.864 373.343 192.836 374.059 191.957 374.977L192.68 375.668ZM195.436 373.747C196.491 373.289 197.639 373.058 198.886 373.058V372.058C197.512 372.058 196.228 372.314 195.038 372.829L195.436 373.747ZM198.886 373.058C200.142 373.058 201.289 373.29 202.334 373.746L202.734 372.83C201.553 372.314 200.268 372.058 198.886 372.058V373.058ZM202.335 373.747C203.397 374.207 204.314 374.847 205.09 375.666L205.816 374.979C204.945 374.059 203.916 373.342 202.733 372.829L202.335 373.747ZM205.091 375.668C205.877 376.489 206.488 377.453 206.924 378.564L207.855 378.199C207.374 376.972 206.694 375.896 205.814 374.977L205.091 375.668ZM206.924 378.566C207.358 379.663 207.577 380.853 207.577 382.143H208.577C208.577 380.738 208.338 379.421 207.854 378.198L206.924 378.566ZM207.577 382.143C207.577 383.442 207.358 384.642 206.924 385.749L207.855 386.114C208.338 384.882 208.577 383.556 208.577 382.143H207.577ZM206.923 385.751C206.497 386.852 205.89 387.816 205.104 388.647L205.83 389.334C206.708 388.406 207.384 387.331 207.855 386.112L206.923 385.751ZM205.104 388.647C204.327 389.467 203.415 390.107 202.362 390.567L202.762 391.483C203.936 390.97 204.96 390.253 205.83 389.334L205.104 388.647ZM202.362 390.567C201.318 391.023 200.161 391.255 198.886 391.255V392.255C200.285 392.255 201.58 392 202.762 391.483L202.362 390.567ZM198.886 391.255C197.61 391.255 196.443 391.023 195.378 390.566L194.984 391.484C196.183 392 197.486 392.255 198.886 392.255V391.255ZM195.38 390.566C194.318 390.106 193.401 389.467 192.625 388.647L191.899 389.334C192.77 390.254 193.799 390.971 194.982 391.484L195.38 390.566ZM192.627 388.649C191.849 387.818 191.247 386.853 190.82 385.751L189.888 386.112C190.359 387.33 191.029 388.404 191.897 389.332L192.627 388.649ZM190.821 385.752C190.395 384.644 190.18 383.443 190.18 382.143H189.18C189.18 383.555 189.414 384.879 189.887 386.111L190.821 385.752ZM210.874 372.895V372.395H210.374V372.895H210.874ZM220.065 373.527L219.835 373.971L219.841 373.974L220.065 373.527ZM222.029 375.351L221.602 375.61L221.605 375.615L222.029 375.351ZM222.086 381.104L221.659 380.843L221.657 380.847L222.086 381.104ZM220.458 382.802L220.711 383.233L220.716 383.23L220.458 382.802ZM218.69 383.419L218.655 382.921L217.859 382.976L218.256 383.668L218.69 383.419ZM223.278 391.418V391.918H224.142L223.712 391.169L223.278 391.418ZM220.556 391.418L220.118 391.658L220.26 391.918H220.556V391.418ZM216.262 383.588L216.701 383.347L216.558 383.088H216.262V383.588ZM213.273 383.588V383.088H212.773V383.588H213.273ZM213.273 391.418V391.918H213.773V391.418H213.273ZM210.874 391.418H210.374V391.918H210.874V391.418ZM213.273 381.806H212.773V382.306H213.273V381.806ZM219.237 380.978L219.541 381.375L219.237 380.978ZM219.237 375.702L218.937 376.102L218.94 376.103L219.237 375.702ZM213.273 374.902V374.402H212.773V374.902H213.273ZM210.874 373.395H217.343V372.395H210.874V373.395ZM217.343 373.395C218.271 373.395 219.099 373.59 219.835 373.971L220.295 373.082C219.403 372.621 218.416 372.395 217.343 372.395V373.395ZM219.841 373.974C220.578 374.342 221.163 374.884 221.602 375.61L222.457 375.092C221.923 374.209 221.198 373.534 220.289 373.079L219.841 373.974ZM221.605 375.615C222.041 376.315 222.273 377.191 222.273 378.27H223.273C223.273 377.047 223.009 375.977 222.454 375.086L221.605 375.615ZM222.273 378.27C222.273 379.346 222.057 380.193 221.659 380.843L222.512 381.365C223.031 380.518 223.273 379.476 223.273 378.27H222.273ZM221.657 380.847C221.242 381.537 220.755 382.039 220.2 382.374L220.716 383.23C221.433 382.798 222.031 382.168 222.514 381.361L221.657 380.847ZM220.204 382.371C219.612 382.719 219.098 382.89 218.655 382.921L218.724 383.918C219.367 383.874 220.031 383.633 220.711 383.233L220.204 382.371ZM218.256 383.668L222.845 391.667L223.712 391.169L219.123 383.171L218.256 383.668ZM223.278 390.918H220.556V391.918H223.278V390.918ZM220.994 391.178L216.701 383.347L215.824 383.828L220.118 391.658L220.994 391.178ZM216.262 383.088H213.273V384.088H216.262V383.088ZM212.773 383.588V391.418H213.773V383.588H212.773ZM213.273 390.918H210.874V391.918H213.273V390.918ZM211.374 391.418V372.895H210.374V391.418H211.374ZM213.273 382.306H216.501V381.306H213.273V382.306ZM216.501 382.306C217.69 382.306 218.716 382.007 219.541 381.375L218.933 380.581C218.317 381.053 217.519 381.306 216.501 381.306V382.306ZM219.541 381.375C220.424 380.698 220.818 379.64 220.818 378.326H219.818C219.818 379.443 219.491 380.154 218.933 380.581L219.541 381.375ZM220.818 378.326C220.818 377.012 220.424 375.959 219.534 375.3L218.94 376.103C219.49 376.511 219.818 377.207 219.818 378.326H220.818ZM219.537 375.302C218.72 374.689 217.7 374.402 216.515 374.402V375.402C217.537 375.402 218.332 375.648 218.937 376.102L219.537 375.302ZM216.515 374.402H213.273V375.402H216.515V374.402ZM212.773 374.902V381.806H213.773V374.902H212.773ZM226.455 372.895V372.395H225.955V372.895H226.455ZM237.4 372.895H237.9V372.395H237.4V372.895ZM237.4 375.07V375.57H237.9V375.07H237.4ZM228.826 375.07V374.57H228.326V375.07H228.826ZM228.826 381.076H228.326V381.576H228.826V381.076ZM237.232 381.076H237.732V380.576H237.232V381.076ZM237.232 383.195V383.695H237.732V383.195H237.232ZM228.826 383.195V382.695H228.326V383.195H228.826ZM228.826 389.243H228.326V389.743H228.826V389.243ZM237.4 389.243H237.9V388.743H237.4V389.243ZM237.4 391.418V391.918H237.9V391.418H237.4ZM226.455 391.418H225.955V391.918H226.455V391.418ZM226.455 373.395H237.4V372.395H226.455V373.395ZM236.9 372.895V375.07H237.9V372.895H236.9ZM237.4 374.57H228.826V375.57H237.4V374.57ZM228.326 375.07V381.076H229.326V375.07H228.326ZM228.826 381.576H237.232V380.576H228.826V381.576ZM236.732 381.076V383.195H237.732V381.076H236.732ZM237.232 382.695H228.826V383.695H237.232V382.695ZM228.326 383.195V389.243H229.326V383.195H228.326ZM228.826 389.743H237.4V388.743H228.826V389.743ZM236.9 389.243V391.418H237.9V389.243H236.9ZM237.4 390.918H226.455V391.918H237.4V390.918ZM226.955 391.418V372.895H225.955V391.418H226.955ZM249.704 372.923L249.553 373.4L249.554 373.4L249.704 372.923ZM251.528 373.695L251.265 374.12L251.269 374.123L251.528 373.695ZM252.328 374.228L252.752 374.493L252.962 374.156L252.681 373.875L252.328 374.228ZM251.093 376.207L250.765 376.585L251.207 376.968L251.517 376.471L251.093 376.207ZM250.349 375.688L250.074 376.105L250.082 376.11L250.349 375.688ZM249.016 375.07L248.851 375.542L248.858 375.544L249.016 375.07ZM244.68 375.435L244.965 375.846L244.966 375.845L244.68 375.435ZM244.245 378.62L243.853 378.931L243.861 378.94L244.245 378.62ZM245.62 379.701L245.863 379.264L245.62 379.701ZM247.683 380.711L247.481 381.169L247.489 381.172L247.683 380.711ZM249.577 381.637L249.333 382.073L249.336 382.075L249.577 381.637ZM251.275 382.858L250.936 383.225L250.939 383.228L251.275 382.858ZM252.496 384.486L252.046 384.704L252.049 384.71L252.496 384.486ZM252.468 388.766L252.023 388.537L252.021 388.542L252.468 388.766ZM251.107 390.394L251.409 390.792L251.41 390.791L251.107 390.394ZM249.072 391.404L249.216 391.883L249.072 391.404ZM243.487 391.334L243.34 391.811L243.341 391.812L243.487 391.334ZM241.284 390.45L241.04 390.886L241.043 390.888L241.284 390.45ZM240.33 389.874L239.907 389.607L239.68 389.966L239.998 390.248L240.33 389.874ZM241.635 387.812L241.955 387.428L241.517 387.063L241.212 387.544L241.635 387.812ZM242.252 388.233L241.987 388.657L241.997 388.663L242.252 388.233ZM243.361 388.794L243.565 388.337L243.361 388.794ZM244.848 389.299L244.725 389.784L244.733 389.786L244.848 389.299ZM249.465 388.654L249.137 388.276L249.465 388.654ZM249.816 384.753L249.434 385.076L249.816 384.753ZM245.915 382.339L245.708 382.794L245.717 382.798L245.915 382.339ZM243.6 381.076L243.873 380.657L243.6 381.076ZM241.902 379.434L241.483 379.707L241.487 379.714L241.902 379.434ZM242.028 374.733L241.629 374.432L241.626 374.436L242.028 374.733ZM244.091 373.134L243.889 372.676L243.887 372.677L244.091 373.134ZM246.953 373.058C247.984 373.058 248.847 373.176 249.553 373.4L249.855 372.447C249.026 372.184 248.055 372.058 246.953 372.058V373.058ZM249.554 373.4C250.311 373.637 250.875 373.88 251.265 374.12L251.79 373.269C251.301 372.968 250.649 372.695 249.853 372.446L249.554 373.4ZM251.269 374.123C251.491 374.257 251.663 374.365 251.787 374.448C251.85 374.489 251.897 374.523 251.931 374.548C251.969 374.576 251.979 374.586 251.974 374.582L252.681 373.875C252.599 373.793 252.472 373.702 252.342 373.616C252.2 373.521 252.014 373.404 251.786 373.267L251.269 374.123ZM251.904 373.963L250.669 375.942L251.517 376.471L252.752 374.493L251.904 373.963ZM251.42 375.829C251.249 375.681 250.973 375.49 250.616 375.265L250.082 376.11C250.436 376.334 250.656 376.49 250.765 376.585L251.42 375.829ZM250.624 375.27C250.223 375.006 249.736 374.783 249.174 374.596L248.858 375.544C249.362 375.713 249.765 375.901 250.074 376.105L250.624 375.27ZM249.182 374.598C248.585 374.389 247.92 374.289 247.192 374.289V375.289C247.83 375.289 248.38 375.377 248.851 375.542L249.182 374.598ZM247.192 374.289C246.072 374.289 245.123 374.517 244.394 375.025L244.966 375.845C245.472 375.493 246.197 375.289 247.192 375.289V374.289ZM244.395 375.024C243.645 375.544 243.268 376.3 243.268 377.231H244.268C244.268 376.609 244.499 376.168 244.965 375.846L244.395 375.024ZM243.268 377.231C243.268 377.865 243.463 378.438 243.853 378.93L244.637 378.31C244.391 377.998 244.268 377.645 244.268 377.231H243.268ZM243.861 378.94C244.238 379.393 244.75 379.79 245.377 380.138L245.863 379.264C245.311 378.957 244.907 378.633 244.629 378.3L243.861 378.94ZM245.377 380.138C245.983 380.475 246.685 380.818 247.481 381.169L247.885 380.254C247.109 379.912 246.436 379.582 245.863 379.264L245.377 380.138ZM247.489 381.172C248.117 381.436 248.732 381.736 249.333 382.073L249.822 381.201C249.188 380.846 248.54 380.529 247.877 380.25L247.489 381.172ZM249.336 382.075C249.928 382.402 250.461 382.786 250.936 383.225L251.615 382.491C251.079 381.995 250.48 381.565 249.819 381.2L249.336 382.075ZM250.939 383.228C251.407 383.654 251.775 384.145 252.046 384.704L252.946 384.268C252.618 383.592 252.173 382.998 251.612 382.488L250.939 383.228ZM252.049 384.71C252.318 385.247 252.459 385.879 252.459 386.619H253.459C253.459 385.75 253.292 384.96 252.943 384.262L252.049 384.71ZM252.459 386.619C252.459 387.343 252.311 387.979 252.023 388.537L252.913 388.995C253.28 388.28 253.459 387.485 253.459 386.619H252.459ZM252.021 388.542C251.738 389.107 251.335 389.591 250.804 389.996L251.41 390.791C252.057 390.298 252.562 389.697 252.915 388.989L252.021 388.542ZM250.805 389.995C250.277 390.395 249.654 390.707 248.928 390.925L249.216 391.883C250.043 391.634 250.776 391.272 251.409 390.792L250.805 389.995ZM248.928 390.925C248.203 391.144 247.415 391.255 246.56 391.255V392.255C247.502 392.255 248.388 392.132 249.216 391.883L248.928 390.925ZM246.56 391.255C245.469 391.255 244.495 391.119 243.634 390.856L243.341 391.812C244.313 392.109 245.388 392.255 246.56 392.255V391.255ZM243.635 390.856C242.746 390.581 242.046 390.298 241.525 390.012L241.043 390.888C241.645 391.219 242.414 391.525 243.34 391.811L243.635 390.856ZM241.528 390.013C241.254 389.86 241.042 389.738 240.89 389.646C240.814 389.6 240.755 389.564 240.713 389.536C240.666 389.504 240.655 389.494 240.662 389.501L239.998 390.248C240.081 390.322 240.224 390.412 240.374 390.503C240.539 390.603 240.762 390.731 241.04 390.886L241.528 390.013ZM240.753 390.142L242.058 388.079L241.212 387.544L239.907 389.607L240.753 390.142ZM241.315 388.196C241.456 388.313 241.688 388.47 241.987 388.657L242.517 387.809C242.218 387.621 242.038 387.497 241.955 387.428L241.315 388.196ZM241.997 388.663C242.318 388.853 242.706 389.049 243.157 389.25L243.565 388.337C243.137 388.146 242.786 387.968 242.508 387.803L241.997 388.663ZM243.157 389.25C243.627 389.46 244.15 389.638 244.725 389.784L244.972 388.814C244.443 388.68 243.974 388.52 243.565 388.337L243.157 389.25ZM244.733 389.786C245.326 389.926 245.955 389.996 246.617 389.996V388.996C246.025 388.996 245.474 388.934 244.964 388.813L244.733 389.786ZM246.617 389.996C247.936 389.996 249.022 389.701 249.793 389.031L249.137 388.276C248.617 388.729 247.804 388.996 246.617 388.996V389.996ZM249.793 389.031C250.551 388.372 250.933 387.512 250.933 386.493H249.933C249.933 387.232 249.67 387.813 249.137 388.276L249.793 389.031ZM250.933 386.493C250.933 385.708 250.69 385.012 250.198 384.43L249.434 385.076C249.765 385.466 249.933 385.93 249.933 386.493H250.933ZM250.198 384.43C249.74 383.889 249.142 383.418 248.419 383.012L247.929 383.883C248.572 384.244 249.069 384.644 249.434 385.076L250.198 384.43ZM248.419 383.012C247.719 382.618 246.95 382.241 246.113 381.88L245.717 382.798C246.526 383.148 247.263 383.51 247.929 383.883L248.419 383.012ZM246.122 381.884C245.301 381.51 244.551 381.101 243.873 380.657L243.326 381.495C244.051 381.968 244.845 382.401 245.708 382.794L246.122 381.884ZM243.873 380.657C243.222 380.232 242.706 379.73 242.316 379.154L241.487 379.714C241.958 380.41 242.574 381.003 243.326 381.495L243.873 380.657ZM242.32 379.161C241.961 378.61 241.77 377.933 241.77 377.105H240.77C240.77 378.092 241 378.967 241.483 379.707L242.32 379.161ZM241.77 377.105C241.77 376.307 241.992 375.622 242.43 375.031L241.626 374.436C241.053 375.21 240.77 376.106 240.77 377.105H241.77ZM242.427 375.034C242.886 374.426 243.503 373.943 244.294 373.59L243.887 372.677C242.957 373.091 242.199 373.675 241.629 374.432L242.427 375.034ZM244.292 373.591C245.093 373.238 245.978 373.058 246.953 373.058V372.058C245.852 372.058 244.828 372.262 243.889 372.676L244.292 373.591ZM262.946 372.895V372.395H262.446V372.895H262.946ZM272.179 374.088L271.914 374.512L271.918 374.514L272.179 374.088ZM275.028 377.357L275.485 377.155V377.155L275.028 377.357ZM275.028 386.942L275.485 387.144L275.028 386.942ZM272.193 390.225L272.458 390.649L272.193 390.225ZM262.946 391.418H262.446V391.918H262.946V391.418ZM265.331 375.084V374.584H264.831V375.084H265.331ZM265.331 389.229H264.831V389.729H265.331V389.229ZM270.692 388.317L270.966 388.735L270.692 388.317ZM272.741 385.819L272.28 385.625L272.279 385.627L272.741 385.819ZM273.428 382.171L273.928 382.174V382.171H273.428ZM272.769 378.522L272.306 378.713L272.307 378.714L272.769 378.522ZM270.706 376.01L270.43 376.428L270.433 376.43L270.706 376.01ZM262.946 373.395H267.31V372.395H262.946V373.395ZM267.31 373.395C269.219 373.395 270.743 373.78 271.914 374.512L272.444 373.664C271.071 372.806 269.349 372.395 267.31 372.395V373.395ZM271.918 374.514C273.112 375.246 273.994 376.257 274.571 377.56L275.485 377.155C274.827 375.67 273.81 374.501 272.441 373.662L271.918 374.514ZM274.571 377.56C275.155 378.88 275.454 380.404 275.454 382.143H276.454C276.454 380.289 276.135 378.623 275.485 377.155L274.571 377.56ZM275.454 382.143C275.454 383.891 275.155 385.42 274.571 386.739L275.485 387.144C276.135 385.676 276.454 384.005 276.454 382.143H275.454ZM274.571 386.739C273.993 388.043 273.114 389.06 271.928 389.801L272.458 390.649C273.817 389.8 274.828 388.628 275.485 387.144L274.571 386.739ZM271.928 389.801C270.757 390.533 269.229 390.918 267.31 390.918V391.918C269.358 391.918 271.085 391.508 272.458 390.649L271.928 389.801ZM267.31 390.918H262.946V391.918H267.31V390.918ZM263.446 391.418V372.895H262.446V391.418H263.446ZM264.831 375.084V389.229H265.831V375.084H264.831ZM265.331 389.729H267.114V388.729H265.331V389.729ZM267.114 389.729C268.64 389.729 269.936 389.411 270.966 388.735L270.417 387.899C269.595 388.439 268.506 388.729 267.114 388.729V389.729ZM270.966 388.735C271.979 388.07 272.726 387.157 273.202 386.011L272.279 385.627C271.876 386.595 271.257 387.348 270.417 387.899L270.966 388.735ZM273.201 386.013C273.68 384.876 273.918 383.594 273.928 382.174L272.928 382.167C272.919 383.479 272.699 384.629 272.28 385.625L273.201 386.013ZM273.928 382.171C273.928 380.742 273.7 379.459 273.23 378.33L272.307 378.714C272.717 379.699 272.928 380.848 272.928 382.171H273.928ZM273.231 378.332C272.754 377.175 272.002 376.256 270.978 375.591L270.433 376.43C271.281 376.98 271.904 377.737 272.306 378.713L273.231 378.332ZM270.981 375.593C269.943 374.908 268.642 374.584 267.114 374.584V375.584C268.504 375.584 269.598 375.878 270.43 376.428L270.981 375.593ZM267.114 374.584H265.331V375.584H267.114V374.584ZM279.022 372.895V372.395H278.522V372.895H279.022ZM289.967 372.895H290.467V372.395H289.967V372.895ZM289.967 375.07V375.57H290.467V375.07H289.967ZM281.393 375.07V374.57H280.893V375.07H281.393ZM281.393 381.076H280.893V381.576H281.393V381.076ZM289.799 381.076H290.299V380.576H289.799V381.076ZM289.799 383.195V383.695H290.299V383.195H289.799ZM281.393 383.195V382.695H280.893V383.195H281.393ZM281.393 389.243H280.893V389.743H281.393V389.243ZM289.967 389.243H290.467V388.743H289.967V389.243ZM289.967 391.418V391.918H290.467V391.418H289.967ZM279.022 391.418H278.522V391.918H279.022V391.418ZM279.022 373.395H289.967V372.395H279.022V373.395ZM289.467 372.895V375.07H290.467V372.895H289.467ZM289.967 374.57H281.393V375.57H289.967V374.57ZM280.893 375.07V381.076H281.893V375.07H280.893ZM281.393 381.576H289.799V380.576H281.393V381.576ZM289.299 381.076V383.195H290.299V381.076H289.299ZM289.799 382.695H281.393V383.695H289.799V382.695ZM280.893 383.195V389.243H281.893V383.195H280.893ZM281.393 389.743H289.967V388.743H281.393V389.743ZM289.467 389.243V391.418H290.467V389.243H289.467ZM289.967 390.918H279.022V391.918H289.967V390.918ZM279.522 391.418V372.895H278.522V391.418H279.522ZM300.952 372.895V372.395H300.452V372.895H300.952ZM303.366 372.895H303.866V372.395H303.366V372.895ZM303.366 391.418V391.918H303.866V391.418H303.366ZM300.952 391.418H300.452V391.918H300.952V391.418ZM300.952 373.395H303.366V372.395H300.952V373.395ZM302.866 372.895V391.418H303.866V372.895H302.866ZM303.366 390.918H300.952V391.918H303.366V390.918ZM301.452 391.418V372.895H300.452V391.418H301.452ZM324.061 372.895H324.561V372.395H324.061V372.895ZM324.061 391.418V391.918H324.561V391.418H324.061ZM321.675 391.418H321.175V391.918H321.675V391.418ZM321.675 378.045L321.176 378.014L321.175 378.03V378.045H321.675ZM321.802 375.996L322.301 376.027L321.314 375.887L321.802 375.996ZM321.296 378.256L321.766 378.428L321.777 378.397L321.784 378.365L321.296 378.256ZM316.834 390.366V390.866H317.183L317.303 390.538L316.834 390.366ZM314.463 390.366L313.993 390.538L314.114 390.866H314.463V390.366ZM310 378.256L309.512 378.362L309.519 378.396L309.531 378.428L310 378.256ZM309.509 375.996L309.998 375.89L309.01 376.024L309.509 375.996ZM309.621 378.045H310.121V378.031L310.121 378.018L309.621 378.045ZM309.621 391.418V391.918H310.121V391.418H309.621ZM307.222 391.418H306.722V391.918H307.222V391.418ZM307.222 372.895V372.395H306.722V372.895H307.222ZM310.421 372.895L310.894 372.731L310.777 372.395H310.421V372.895ZM315.473 387.433L315.965 387.345L315.958 387.306L315.945 387.269L315.473 387.433ZM315.641 388.373L315.149 388.461L316.132 388.468L315.641 388.373ZM315.824 387.433L315.352 387.268L315.34 387.302L315.333 387.338L315.824 387.433ZM320.89 372.895V372.395H320.534L320.417 372.731L320.89 372.895ZM323.561 372.895V391.418H324.561V372.895H323.561ZM324.061 390.918H321.675V391.918H324.061V390.918ZM322.175 391.418V378.045H321.175V391.418H322.175ZM322.174 378.076L322.301 376.027L321.303 375.966L321.176 378.014L322.174 378.076ZM321.314 375.887L320.809 378.146L321.784 378.365L322.29 376.105L321.314 375.887ZM320.827 378.083L316.365 390.193L317.303 390.538L321.766 378.428L320.827 378.083ZM316.834 389.866H314.463V390.866H316.834V389.866ZM314.932 390.193L310.469 378.083L309.531 378.428L313.993 390.538L314.932 390.193ZM310.489 378.149L309.998 375.89L309.021 376.102L309.512 378.362L310.489 378.149ZM309.01 376.024L309.122 378.072L310.121 378.018L310.008 375.969L309.01 376.024ZM309.121 378.045V391.418H310.121V378.045H309.121ZM309.621 390.918H307.222V391.918H309.621V390.918ZM307.722 391.418V372.895H306.722V391.418H307.722ZM307.222 373.395H310.421V372.395H307.222V373.395ZM309.949 373.059L315.001 387.597L315.945 387.269L310.894 372.731L309.949 373.059ZM314.981 387.521L315.149 388.461L316.134 388.285L315.965 387.345L314.981 387.521ZM316.132 388.468L316.315 387.528L315.333 387.338L315.151 388.278L316.132 388.468ZM316.296 387.597L321.362 373.06L320.417 372.731L315.352 387.268L316.296 387.597ZM320.89 373.395H324.061V372.395H320.89V373.395ZM330.412 385.861L329.968 386.091L329.969 386.094L330.412 385.861ZM332.798 388.499L332.526 388.919L332.528 388.921L332.798 388.499ZM339.758 388.499L340.029 388.919L340.03 388.919L339.758 388.499ZM342.129 385.861L341.685 385.632V385.632L342.129 385.861ZM342.129 378.438L341.685 378.668L341.686 378.669L342.129 378.438ZM339.758 375.814L339.487 376.234L339.489 376.235L339.758 375.814ZM332.798 375.814L332.528 375.393L332.798 375.814ZM330.412 378.438L329.969 378.205L329.969 378.207L330.412 378.438ZM327.76 378.382L327.296 378.196L327.295 378.198L327.76 378.382ZM329.71 375.323L329.349 374.977V374.977L329.71 375.323ZM332.629 373.288L332.43 372.829L332.429 372.83L332.629 373.288ZM339.926 373.288L339.726 373.746L339.727 373.747L339.926 373.288ZM342.845 375.323L342.482 375.666L342.484 375.668L342.845 375.323ZM344.781 378.382L344.316 378.564L344.316 378.566L344.781 378.382ZM344.781 385.931L344.316 385.749L344.315 385.751L344.781 385.931ZM342.859 388.99L342.496 388.647L342.496 388.647L342.859 388.99ZM339.954 391.025L340.154 391.483L339.954 391.025ZM332.573 391.025L332.374 391.484L332.376 391.484L332.573 391.025ZM329.654 388.99L329.289 389.332L329.291 389.334L329.654 388.99ZM327.746 385.931L327.279 386.111L327.28 386.112L327.746 385.931ZM335.169 372.109L334.769 372.409L335.042 372.775L335.431 372.535L335.169 372.109ZM334.299 370.945L333.981 370.559L333.613 370.862L333.899 371.244L334.299 370.945ZM338.579 367.422L338.971 367.112L338.655 366.712L338.261 367.036L338.579 367.422ZM339.954 369.162L340.216 369.588L340.695 369.293L340.346 368.852L339.954 369.162ZM329.056 382.143C329.056 383.589 329.357 384.909 329.968 386.091L330.856 385.632C330.326 384.606 330.056 383.446 330.056 382.143H329.056ZM329.969 386.094C330.588 387.271 331.441 388.216 332.526 388.919L333.07 388.08C332.134 387.473 331.396 386.659 330.855 385.629L329.969 386.094ZM332.528 388.921C333.627 389.622 334.882 389.967 336.278 389.967V388.967C335.054 388.967 333.989 388.667 333.067 388.078L332.528 388.921ZM336.278 389.967C337.682 389.967 338.938 389.623 340.029 388.919L339.487 388.079C338.575 388.667 337.511 388.967 336.278 388.967V389.967ZM340.03 388.919C341.115 388.215 341.964 387.269 342.573 386.091L341.685 385.632C341.153 386.661 340.421 387.474 339.486 388.08L340.03 388.919ZM342.573 386.091C343.184 384.909 343.485 383.589 343.485 382.143H342.485C342.485 383.446 342.215 384.606 341.685 385.632L342.573 386.091ZM343.485 382.143C343.485 380.696 343.185 379.381 342.573 378.207L341.686 378.669C342.215 379.684 342.485 380.838 342.485 382.143H343.485ZM342.573 378.208C341.964 377.029 341.114 376.087 340.027 375.393L339.489 376.235C340.422 376.832 341.153 377.639 341.685 378.668L342.573 378.208ZM340.029 375.394C338.938 374.691 337.682 374.346 336.278 374.346V375.346C337.511 375.346 338.575 375.646 339.487 376.234L340.029 375.394ZM336.278 374.346C334.882 374.346 333.627 374.691 332.528 375.393L333.067 376.235C333.989 375.646 335.054 375.346 336.278 375.346V374.346ZM332.528 375.393C331.442 376.087 330.588 377.028 329.969 378.205L330.855 378.67C331.396 377.64 332.133 376.832 333.067 376.235L332.528 375.393ZM329.969 378.207C329.357 379.381 329.056 380.696 329.056 382.143H330.056C330.056 380.838 330.326 379.684 330.855 378.669L329.969 378.207ZM327.572 382.143C327.572 380.853 327.791 379.663 328.225 378.566L327.295 378.198C326.812 379.421 326.572 380.738 326.572 382.143H327.572ZM328.224 378.568C328.669 377.455 329.285 376.49 330.072 375.668L329.349 374.977C328.47 375.895 327.786 376.97 327.296 378.196L328.224 378.568ZM330.072 375.668C330.858 374.847 331.776 374.206 332.829 373.746L332.429 372.83C331.256 373.343 330.228 374.059 329.349 374.977L330.072 375.668ZM332.828 373.747C333.884 373.289 335.031 373.058 336.278 373.058V372.058C334.904 372.058 333.62 372.314 332.43 372.829L332.828 373.747ZM336.278 373.058C337.534 373.058 338.681 373.29 339.726 373.746L340.126 372.83C338.945 372.314 337.66 372.058 336.278 372.058V373.058ZM339.727 373.747C340.789 374.207 341.706 374.847 342.482 375.666L343.208 374.979C342.337 374.059 341.308 373.342 340.125 372.829L339.727 373.747ZM342.484 375.668C343.269 376.489 343.88 377.453 344.316 378.564L345.247 378.199C344.766 376.972 344.086 375.896 343.206 374.977L342.484 375.668ZM344.316 378.566C344.75 379.663 344.969 380.853 344.969 382.143H345.969C345.969 380.738 345.73 379.421 345.246 378.198L344.316 378.566ZM344.969 382.143C344.969 383.442 344.75 384.642 344.316 385.749L345.247 386.114C345.73 384.882 345.969 383.556 345.969 382.143H344.969ZM344.315 385.751C343.889 386.852 343.283 387.816 342.496 388.647L343.222 389.334C344.1 388.406 344.776 387.331 345.248 386.112L344.315 385.751ZM342.496 388.647C341.719 389.467 340.807 390.107 339.754 390.567L340.154 391.483C341.328 390.97 342.352 390.253 343.222 389.334L342.496 388.647ZM339.754 390.567C338.71 391.023 337.554 391.255 336.278 391.255V392.255C337.677 392.255 338.972 392 340.154 391.483L339.754 390.567ZM336.278 391.255C335.002 391.255 333.835 391.023 332.771 390.566L332.376 391.484C333.575 392 334.878 392.255 336.278 392.255V391.255ZM332.772 390.566C331.71 390.106 330.793 389.467 330.018 388.647L329.291 389.334C330.162 390.254 331.191 390.971 332.374 391.484L332.772 390.566ZM330.019 388.649C329.241 387.818 328.639 386.853 328.212 385.751L327.28 386.112C327.751 387.33 328.421 388.404 329.289 389.332L330.019 388.649ZM328.213 385.752C327.787 384.644 327.572 383.443 327.572 382.143H326.572C326.572 383.555 326.806 384.879 327.279 386.111L328.213 385.752ZM335.57 371.81L334.7 370.645L333.899 371.244L334.769 372.409L335.57 371.81ZM334.617 371.331L338.897 367.809L338.261 367.036L333.981 370.559L334.617 371.331ZM338.187 367.732L339.562 369.472L340.346 368.852L338.971 367.112L338.187 367.732ZM339.692 368.737L334.907 371.684L335.431 372.535L340.216 369.588L339.692 368.737ZM356.573 391.418V391.918H356.922L357.042 391.59L356.573 391.418ZM353.738 391.418L353.269 391.59L353.389 391.918H353.738V391.418ZM346.961 372.895V372.395H346.245L346.491 373.067L346.961 372.895ZM349.669 372.895L350.141 372.729L350.023 372.395H349.669V372.895ZM355.156 388.499L354.684 388.665L355.155 390.003L355.627 388.666L355.156 388.499ZM360.67 372.895V372.395H360.317L360.199 372.728L360.67 372.895ZM363.365 372.895L363.834 373.067L364.081 372.395H363.365V372.895ZM356.573 390.918H353.738V391.918H356.573V390.918ZM354.208 391.246L347.43 372.723L346.491 373.067L353.269 391.59L354.208 391.246ZM346.961 373.395H349.669V372.395H346.961V373.395ZM349.197 373.061L354.684 388.665L355.627 388.333L350.141 372.729L349.197 373.061ZM355.627 388.666L361.142 373.062L360.199 372.728L354.684 388.333L355.627 388.666ZM360.67 373.395H363.365V372.395H360.67V373.395ZM362.895 372.723L356.104 391.246L357.042 391.59L363.834 373.067L362.895 372.723ZM365.82 372.895V372.395H365.32V372.895H365.82ZM376.766 372.895H377.266V372.395H376.766V372.895ZM376.766 375.07V375.57H377.266V375.07H376.766ZM368.192 375.07V374.57H367.692V375.07H368.192ZM368.192 381.076H367.692V381.576H368.192V381.076ZM376.597 381.076H377.097V380.576H376.597V381.076ZM376.597 383.195V383.695H377.097V383.195H376.597ZM368.192 383.195V382.695H367.692V383.195H368.192ZM368.192 389.243H367.692V389.743H368.192V389.243ZM376.766 389.243H377.266V388.743H376.766V389.243ZM376.766 391.418V391.918H377.266V391.418H376.766ZM365.82 391.418H365.32V391.918H365.82V391.418ZM365.82 373.395H376.766V372.395H365.82V373.395ZM376.266 372.895V375.07H377.266V372.895H376.266ZM376.766 374.57H368.192V375.57H376.766V374.57ZM367.692 375.07V381.076H368.692V375.07H367.692ZM368.192 381.576H376.597V380.576H368.192V381.576ZM376.097 381.076V383.195H377.097V381.076H376.097ZM376.597 382.695H368.192V383.695H376.597V382.695ZM367.692 383.195V389.243H368.692V383.195H367.692ZM368.192 389.743H376.766V388.743H368.192V389.743ZM376.266 389.243V391.418H377.266V389.243H376.266ZM376.766 390.918H365.82V391.918H376.766V390.918ZM366.32 391.418V372.895H365.32V391.418H366.32ZM380.762 372.895V372.395H380.262V372.895H380.762ZM383.175 372.895H383.675V372.395H383.175V372.895ZM383.175 391.418V391.918H383.675V391.418H383.175ZM380.762 391.418H380.262V391.918H380.762V391.418ZM380.762 373.395H383.175V372.395H380.762V373.395ZM382.675 372.895V391.418H383.675V372.895H382.675ZM383.175 390.918H380.762V391.918H383.175V390.918ZM381.262 391.418V372.895H380.262V391.418H381.262ZM395.619 372.923L395.468 373.4L395.47 373.4L395.619 372.923ZM397.444 373.695L397.181 374.12L397.185 374.123L397.444 373.695ZM398.244 374.228L398.668 374.493L398.878 374.156L398.597 373.875L398.244 374.228ZM397.009 376.207L396.681 376.585L397.123 376.968L397.433 376.471L397.009 376.207ZM396.265 375.688L395.99 376.105L395.998 376.11L396.265 375.688ZM394.932 375.07L394.766 375.542L394.774 375.544L394.932 375.07ZM390.596 375.435L390.88 375.846L390.882 375.845L390.596 375.435ZM390.161 378.62L389.768 378.931L389.777 378.94L390.161 378.62ZM391.536 379.701L391.779 379.264L391.536 379.701ZM393.599 380.711L393.397 381.169L393.405 381.172L393.599 380.711ZM395.493 381.637L395.249 382.073L395.251 382.075L395.493 381.637ZM397.191 382.858L396.851 383.225L396.855 383.228L397.191 382.858ZM398.412 384.486L397.962 384.704L397.965 384.71L398.412 384.486ZM398.384 388.766L397.939 388.537L397.937 388.542L398.384 388.766ZM397.023 390.394L397.325 390.792L397.326 390.791L397.023 390.394ZM394.988 391.404L395.132 391.883L394.988 391.404ZM389.403 391.334L389.255 391.811L389.257 391.812L389.403 391.334ZM387.2 390.45L386.956 390.886L386.959 390.888L387.2 390.45ZM386.246 389.874L385.823 389.607L385.596 389.966L385.914 390.248L386.246 389.874ZM387.551 387.812L387.871 387.428L387.433 387.063L387.128 387.544L387.551 387.812ZM388.168 388.233L387.903 388.657L387.913 388.663L388.168 388.233ZM389.277 388.794L389.481 388.337L389.277 388.794ZM390.764 389.299L390.641 389.784L390.649 389.786L390.764 389.299ZM395.381 388.654L395.053 388.276L395.381 388.654ZM395.732 384.753L395.35 385.076L395.732 384.753ZM391.831 382.339L391.623 382.794L391.632 382.798L391.831 382.339ZM389.515 381.076L389.789 380.657L389.515 381.076ZM387.817 379.434L387.399 379.707L387.403 379.714L387.817 379.434ZM387.944 374.733L387.544 374.432L387.542 374.436L387.944 374.733ZM390.006 373.134L389.805 372.676L389.803 372.677L390.006 373.134ZM392.869 373.058C393.9 373.058 394.763 373.176 395.468 373.4L395.771 372.447C394.942 372.184 393.971 372.058 392.869 372.058V373.058ZM395.47 373.4C396.227 373.637 396.791 373.88 397.181 374.12L397.706 373.269C397.217 372.968 396.565 372.695 395.769 372.446L395.47 373.4ZM397.185 374.123C397.407 374.257 397.579 374.365 397.703 374.448C397.765 374.489 397.813 374.523 397.847 374.548C397.885 374.576 397.894 374.586 397.89 374.582L398.597 373.875C398.515 373.793 398.387 373.702 398.258 373.616C398.116 373.521 397.93 373.404 397.702 373.267L397.185 374.123ZM397.819 373.963L396.585 375.942L397.433 376.471L398.668 374.493L397.819 373.963ZM397.336 375.829C397.165 375.681 396.889 375.49 396.532 375.265L395.998 376.11C396.352 376.334 396.572 376.49 396.681 376.585L397.336 375.829ZM396.54 375.27C396.139 375.006 395.652 374.783 395.09 374.596L394.774 375.544C395.278 375.713 395.68 375.901 395.99 376.105L396.54 375.27ZM395.097 374.598C394.501 374.389 393.836 374.289 393.108 374.289V375.289C393.746 375.289 394.296 375.377 394.766 375.542L395.097 374.598ZM393.108 374.289C391.988 374.289 391.039 374.517 390.31 375.025L390.882 375.845C391.388 375.493 392.113 375.289 393.108 375.289V374.289ZM390.311 375.024C389.56 375.544 389.184 376.3 389.184 377.231H390.184C390.184 376.609 390.415 376.168 390.88 375.846L390.311 375.024ZM389.184 377.231C389.184 377.865 389.379 378.438 389.769 378.93L390.553 378.31C390.306 377.998 390.184 377.645 390.184 377.231H389.184ZM389.777 378.94C390.154 379.393 390.666 379.79 391.293 380.138L391.779 379.264C391.227 378.957 390.823 378.633 390.545 378.3L389.777 378.94ZM391.293 380.138C391.899 380.475 392.601 380.818 393.397 381.169L393.8 380.254C393.025 379.912 392.352 379.582 391.779 379.264L391.293 380.138ZM393.405 381.172C394.033 381.436 394.647 381.736 395.249 382.073L395.738 381.201C395.104 380.846 394.456 380.529 393.793 380.25L393.405 381.172ZM395.251 382.075C395.844 382.402 396.377 382.786 396.851 383.225L397.531 382.491C396.995 381.995 396.396 381.565 395.735 381.2L395.251 382.075ZM396.855 383.228C397.323 383.654 397.691 384.145 397.962 384.704L398.862 384.268C398.534 383.592 398.089 382.998 397.527 382.488L396.855 383.228ZM397.965 384.71C398.233 385.247 398.375 385.879 398.375 386.619H399.375C399.375 385.75 399.208 384.96 398.859 384.262L397.965 384.71ZM398.375 386.619C398.375 387.343 398.226 387.979 397.939 388.537L398.828 388.995C399.196 388.28 399.375 387.485 399.375 386.619H398.375ZM397.937 388.542C397.654 389.107 397.251 389.591 396.72 389.996L397.326 390.791C397.973 390.298 398.477 389.697 398.831 388.989L397.937 388.542ZM396.721 389.995C396.193 390.395 395.57 390.707 394.844 390.925L395.132 391.883C395.959 391.634 396.692 391.272 397.325 390.792L396.721 389.995ZM394.844 390.925C394.119 391.144 393.331 391.255 392.476 391.255V392.255C393.418 392.255 394.304 392.132 395.132 391.883L394.844 390.925ZM392.476 391.255C391.385 391.255 390.411 391.119 389.549 390.856L389.257 391.812C390.229 392.109 391.303 392.255 392.476 392.255V391.255ZM389.551 390.856C388.662 390.581 387.962 390.298 387.441 390.012L386.959 390.888C387.56 391.219 388.329 391.525 389.255 391.811L389.551 390.856ZM387.444 390.013C387.17 389.86 386.958 389.738 386.806 389.646C386.729 389.6 386.671 389.564 386.629 389.536C386.581 389.504 386.571 389.494 386.578 389.501L385.914 390.248C385.997 390.322 386.14 390.412 386.289 390.503C386.455 390.603 386.678 390.731 386.956 390.886L387.444 390.013ZM386.668 390.142L387.973 388.079L387.128 387.544L385.823 389.607L386.668 390.142ZM387.231 388.196C387.372 388.313 387.604 388.47 387.903 388.657L388.433 387.809C388.134 387.621 387.954 387.497 387.871 387.428L387.231 388.196ZM387.913 388.663C388.234 388.853 388.622 389.049 389.073 389.25L389.481 388.337C389.053 388.146 388.701 387.968 388.423 387.803L387.913 388.663ZM389.073 389.25C389.543 389.46 390.066 389.638 390.641 389.784L390.887 388.814C390.358 388.68 389.89 388.52 389.481 388.337L389.073 389.25ZM390.649 389.786C391.242 389.926 391.871 389.996 392.532 389.996V388.996C391.94 388.996 391.39 388.934 390.88 388.813L390.649 389.786ZM392.532 389.996C393.852 389.996 394.938 389.701 395.709 389.031L395.053 388.276C394.533 388.729 393.72 388.996 392.532 388.996V389.996ZM395.709 389.031C396.467 388.372 396.849 387.512 396.849 386.493H395.849C395.849 387.232 395.586 387.813 395.053 388.276L395.709 389.031ZM396.849 386.493C396.849 385.708 396.606 385.012 396.113 384.43L395.35 385.076C395.681 385.466 395.849 385.93 395.849 386.493H396.849ZM396.113 384.43C395.656 383.889 395.058 383.418 394.335 383.012L393.845 383.883C394.487 384.244 394.985 384.644 395.35 385.076L396.113 384.43ZM394.335 383.012C393.635 382.618 392.866 382.241 392.029 381.88L391.632 382.798C392.442 383.148 393.179 383.51 393.845 383.883L394.335 383.012ZM392.038 381.884C391.217 381.51 390.467 381.101 389.789 380.657L389.242 381.495C389.967 381.968 390.761 382.401 391.623 382.794L392.038 381.884ZM389.789 380.657C389.138 380.232 388.621 379.73 388.232 379.154L387.403 379.714C387.874 380.41 388.49 381.003 389.242 381.495L389.789 380.657ZM388.236 379.161C387.877 378.61 387.686 377.933 387.686 377.105H386.686C386.686 378.092 386.916 378.967 387.399 379.707L388.236 379.161ZM387.686 377.105C387.686 376.307 387.908 375.622 388.346 375.031L387.542 374.436C386.969 375.21 386.686 376.106 386.686 377.105H387.686ZM388.343 375.034C388.801 374.426 389.419 373.943 390.21 373.59L389.803 372.677C388.873 373.091 388.115 373.675 387.544 374.432L388.343 375.034ZM390.208 373.591C391.009 373.238 391.894 373.058 392.869 373.058V372.058C391.768 372.058 390.744 372.262 389.805 372.676L390.208 373.591Z" fill="#09090B" mask="url(#path-2-outside-1_88_171)"/>
<path d="M145.627 97.7464V217.503L172.005 231.466L171.377 111.709L188.335 102.31V240.059L248.627 273.354L307.664 241.67V116.542L281.286 102.31V230.392L248.627 248.114L214.713 229.855V60.1545L145.627 97.7464Z" fill="#FF8100"/>
<path d="M248.627 232.54L234.81 225.022V49.414L247.999 42.4326L350.371 98.2835V218.041L323.993 232.54V111.172L261.188 77.3394V225.559L248.627 232.54Z" fill="#FF8100"/>
<path fill-rule="evenodd" clip-rule="evenodd" d="M248.005 41.7998L351 97.9905V218.335L323.366 233.525V111.47L261.817 78.3139V225.852L248.632 233.18L234.183 225.318V49.1163L248.005 41.7998ZM235.439 49.7146V224.729L248.624 231.903L260.561 225.269V76.3678L324.622 110.877V231.558L349.744 217.749V98.5793L247.995 43.0683L235.439 49.7146ZM215.341 59.1777V229.56L248.627 247.48L280.659 230.098V101.337L308.293 116.248V241.968L248.623 273.992L187.707 240.353V103.299L172.008 112.002L172.639 232.434L145 217.804V97.4531L215.341 59.1777ZM146.256 98.0427V217.206L171.373 230.501L170.748 111.42L188.963 101.323V239.768L248.633 272.719L307.037 241.374V116.84L281.915 103.285V230.689L248.629 248.751L214.085 230.153V61.1343L146.256 98.0427Z" fill="#FF8100"/>
<path d="M248.627 28.0241L145.627 83.875V55.9495L247.999 0.635742L350.371 56.4866V83.3379L248.627 28.0241Z" fill="#FF8100"/>
<path fill-rule="evenodd" clip-rule="evenodd" d="M248.002 0L351 56.1926V84.3162L248.628 28.6607L145 84.8518V55.654L248.002 0ZM146.256 56.2458V82.8989L248.628 27.3884L349.744 82.3605V56.7813L247.998 1.27228L146.256 56.2458Z" fill="#FF8100"/>
<path d="M192.732 0.635742V55.9495H166.354V15.1355L192.732 0.635742Z" fill="#FF8100"/>
</svg>
