<svg width="457" height="347" viewBox="0 0 457 347" fill="none" xmlns="http://www.w3.org/2000/svg">
<path d="M14.4117 300.655C16.498 300.655 18.3126 300.891 19.8555 301.365C21.4159 301.82 22.6519 302.311 23.5636 302.837C24.4928 303.363 25.0539 303.705 25.2467 303.863L22.0383 309.202C21.7578 308.974 21.2756 308.658 20.5919 308.255C19.9256 307.834 19.1191 307.466 18.1724 307.15C17.2256 306.817 16.2 306.651 15.0954 306.651C13.5 306.651 12.2201 306.957 11.2558 307.571C10.3091 308.167 9.8357 309.035 9.8357 310.175C9.8357 310.946 10.0899 311.639 10.5984 312.252C11.1068 312.848 11.8519 313.409 12.8338 313.935C13.8331 314.461 15.0516 315.014 16.4893 315.592C17.7516 316.083 18.9526 316.653 20.0922 317.302C21.2493 317.95 22.275 318.713 23.1691 319.59C24.0808 320.466 24.7997 321.483 25.3256 322.64C25.8691 323.797 26.1409 325.121 26.1409 326.611C26.1409 328.277 25.799 329.732 25.1152 330.977C24.449 332.222 23.5198 333.265 22.3276 334.106C21.1529 334.948 19.8029 335.579 18.2776 336C16.7523 336.421 15.148 336.631 13.4649 336.631C11.1857 336.631 9.13441 336.368 7.31103 335.842C5.50519 335.299 4.04123 334.72 2.91915 334.106C1.79708 333.493 1.13961 333.098 0.946752 332.923L4.31298 327.374C4.52337 327.532 4.91785 327.786 5.49642 328.137C6.09253 328.487 6.81136 328.847 7.65291 329.215C8.512 329.583 9.44122 329.899 10.4406 330.162C11.4575 330.425 12.4919 330.556 13.5438 330.556C15.4373 330.556 16.8662 330.162 17.8305 329.373C18.7948 328.584 19.2769 327.558 19.2769 326.296C19.2769 325.349 18.9701 324.516 18.3565 323.797C17.7428 323.079 16.875 322.421 15.7529 321.825C14.6484 321.211 13.3247 320.589 11.7818 319.958C10.239 319.309 8.80129 318.555 7.46882 317.696C6.15389 316.819 5.09318 315.75 4.28668 314.488C3.48019 313.208 3.07695 311.639 3.07695 309.78C3.07695 307.939 3.59415 306.335 4.62857 304.968C5.68051 303.6 7.06558 302.539 8.78376 301.785C10.5195 301.032 12.3954 300.655 14.4117 300.655ZM36.7577 318.617C36.7577 320.826 37.2136 322.824 38.1253 324.613C39.0545 326.401 40.3256 327.821 41.9386 328.873C43.5516 329.907 45.4188 330.425 47.5402 330.425C49.6616 330.425 51.5288 329.907 53.1418 328.873C54.7723 327.821 56.0434 326.401 56.9551 324.613C57.8668 322.824 58.3227 320.826 58.3227 318.617C58.3227 316.407 57.8668 314.418 56.9551 312.647C56.0434 310.858 54.7723 309.438 53.1418 308.386C51.5288 307.334 49.6616 306.808 47.5402 306.808C45.4188 306.808 43.5516 307.334 41.9386 308.386C40.3256 309.438 39.0545 310.858 38.1253 312.647C37.2136 314.418 36.7577 316.407 36.7577 318.617ZM29.9201 318.617C29.9201 316.092 30.3584 313.743 31.235 311.569C32.1292 309.377 33.374 307.466 34.9694 305.835C36.5649 304.205 38.4321 302.934 40.571 302.022C42.7275 301.11 45.0506 300.655 47.5402 300.655C50.0649 300.655 52.3967 301.11 54.5356 302.022C56.6746 302.934 58.533 304.205 60.111 305.835C61.7064 307.466 62.9425 309.377 63.8191 311.569C64.6957 313.743 65.134 316.092 65.134 318.617C65.134 321.159 64.7045 323.526 63.8454 325.717C62.9863 327.891 61.7678 329.802 60.1899 331.45C58.6119 333.081 56.7535 334.352 54.6145 335.264C52.4756 336.175 50.1175 336.631 47.5402 336.631C44.9279 336.631 42.5434 336.175 40.387 335.264C38.248 334.352 36.3896 333.081 34.8116 331.45C33.2513 329.802 32.0415 327.891 31.1824 325.717C30.3409 323.526 29.9201 321.159 29.9201 318.617ZM76.0151 307.361L76.4622 307.44V336H69.9138V301.286H78.9605L94.5294 329.794L94.0823 329.899V301.286H100.631V336H91.5313L76.0151 307.361ZM127.302 321.483H113.521V336H106.999V301.286H113.521V315.697H127.302V301.286H133.824V336H127.302V321.483ZM145.702 318.617C145.702 320.826 146.158 322.824 147.07 324.613C147.999 326.401 149.27 327.821 150.883 328.873C152.496 329.907 154.363 330.425 156.485 330.425C158.606 330.425 160.473 329.907 162.086 328.873C163.717 327.821 164.988 326.401 165.899 324.613C166.811 322.824 167.267 320.826 167.267 318.617C167.267 316.407 166.811 314.418 165.899 312.647C164.988 310.858 163.717 309.438 162.086 308.386C160.473 307.334 158.606 306.808 156.485 306.808C154.363 306.808 152.496 307.334 150.883 308.386C149.27 309.438 147.999 310.858 147.07 312.647C146.158 314.418 145.702 316.407 145.702 318.617ZM138.864 318.617C138.864 316.092 139.303 313.743 140.179 311.569C141.073 309.377 142.318 307.466 143.914 305.835C145.509 304.205 147.376 302.934 149.515 302.022C151.672 301.11 153.995 300.655 156.485 300.655C159.009 300.655 161.341 301.11 163.48 302.022C165.619 302.934 167.477 304.205 169.055 305.835C170.651 307.466 171.887 309.377 172.763 311.569C173.64 313.743 174.078 316.092 174.078 318.617C174.078 321.159 173.649 323.526 172.79 325.717C171.931 327.891 170.712 329.802 169.134 331.45C167.556 333.081 165.698 334.352 163.559 335.264C161.42 336.175 159.062 336.631 156.485 336.631C153.872 336.631 151.488 336.175 149.331 335.264C147.192 334.352 145.334 333.081 143.756 331.45C142.196 329.802 140.986 327.891 140.127 325.717C139.285 323.526 138.864 321.159 138.864 318.617ZM190.798 300.655C192.884 300.655 194.699 300.891 196.242 301.365C197.802 301.82 199.038 302.311 199.95 302.837C200.879 303.363 201.44 303.705 201.633 303.863L198.424 309.202C198.144 308.974 197.662 308.658 196.978 308.255C196.312 307.834 195.505 307.466 194.558 307.15C193.612 306.817 192.586 306.651 191.481 306.651C189.886 306.651 188.606 306.957 187.642 307.571C186.695 308.167 186.222 309.035 186.222 310.175C186.222 310.946 186.476 311.639 186.984 312.252C187.493 312.848 188.238 313.409 189.22 313.935C190.219 314.461 191.438 315.014 192.875 315.592C194.138 316.083 195.339 316.653 196.478 317.302C197.635 317.95 198.661 318.713 199.555 319.59C200.467 320.466 201.186 321.483 201.712 322.64C202.255 323.797 202.527 325.121 202.527 326.611C202.527 328.277 202.185 329.732 201.501 330.977C200.835 332.222 199.906 333.265 198.714 334.106C197.539 334.948 196.189 335.579 194.664 336C193.138 336.421 191.534 336.631 189.851 336.631C187.572 336.631 185.52 336.368 183.697 335.842C181.891 335.299 180.427 334.72 179.305 334.106C178.183 333.493 177.526 333.098 177.333 332.923L180.699 327.374C180.909 327.532 181.304 327.786 181.882 328.137C182.479 328.487 183.197 328.847 184.039 329.215C184.898 329.583 185.827 329.899 186.827 330.162C187.843 330.425 188.878 330.556 189.93 330.556C191.823 330.556 193.252 330.162 194.217 329.373C195.181 328.584 195.663 327.558 195.663 326.296C195.663 325.349 195.356 324.516 194.743 323.797C194.129 323.079 193.261 322.421 192.139 321.825C191.034 321.211 189.711 320.589 188.168 319.958C186.625 319.309 185.187 318.555 183.855 317.696C182.54 316.819 181.479 315.75 180.673 314.488C179.866 313.208 179.463 311.639 179.463 309.78C179.463 307.939 179.98 306.335 181.015 304.968C182.067 303.6 183.452 302.539 185.17 301.785C186.906 301.032 188.781 300.655 190.798 300.655ZM219.97 326.901C219.97 325.551 220.225 324.358 220.733 323.324C221.241 322.272 221.89 321.369 222.679 320.615C223.486 319.844 224.318 319.195 225.177 318.669C226.054 318.143 226.869 317.731 227.623 317.433C228.395 317.118 228.991 316.898 229.412 316.776C229.043 316.565 228.614 316.223 228.123 315.75C227.65 315.259 227.185 314.672 226.729 313.988C226.291 313.287 225.923 312.507 225.625 311.647C225.327 310.788 225.177 309.885 225.177 308.939C225.177 307.466 225.581 306.098 226.387 304.836C227.211 303.574 228.403 302.566 229.964 301.812C231.524 301.04 233.391 300.655 235.565 300.655C237.722 300.655 239.519 301.023 240.957 301.759C242.412 302.495 243.508 303.495 244.244 304.757C244.998 306.02 245.375 307.448 245.375 309.044C245.375 310.289 245.094 311.411 244.533 312.41C243.99 313.392 243.306 314.26 242.482 315.014C241.658 315.75 240.834 316.372 240.01 316.881C239.203 317.389 238.52 317.775 237.959 318.038L243.876 324.402C244.314 324.034 244.919 323.403 245.69 322.509C246.479 321.615 247.295 320.545 248.136 319.3L252.502 323.219C252.239 323.64 251.862 324.174 251.371 324.823C250.88 325.472 250.345 326.12 249.767 326.769C249.206 327.418 248.653 327.97 248.11 328.426L255.316 336H247.032L243.192 331.924C242.298 332.695 241.264 333.44 240.089 334.159C238.932 334.878 237.617 335.474 236.144 335.947C234.671 336.403 233.006 336.631 231.147 336.631C229.131 336.631 227.273 336.254 225.572 335.5C223.889 334.746 222.53 333.642 221.496 332.187C220.479 330.731 219.97 328.969 219.97 326.901ZM232.646 320.72C232.418 320.808 232.085 320.957 231.647 321.168C231.226 321.36 230.77 321.615 230.279 321.93C229.789 322.228 229.324 322.596 228.886 323.035C228.447 323.456 228.088 323.938 227.807 324.481C227.527 325.025 227.387 325.638 227.387 326.322C227.387 327.269 227.606 328.058 228.044 328.689C228.482 329.303 229.07 329.758 229.806 330.056C230.56 330.355 231.393 330.504 232.304 330.504C233.234 330.504 234.128 330.346 234.987 330.03C235.846 329.715 236.626 329.329 237.327 328.873C238.046 328.417 238.616 327.979 239.037 327.558L232.646 320.72ZM235.539 305.704C234.698 305.704 233.979 305.87 233.383 306.204C232.787 306.519 232.339 306.931 232.041 307.44C231.743 307.948 231.594 308.474 231.594 309.018C231.594 309.596 231.735 310.192 232.015 310.806C232.296 311.42 232.62 311.989 232.988 312.515C233.374 313.041 233.725 313.48 234.04 313.83C234.356 314.163 234.54 314.365 234.592 314.435C234.855 314.347 235.25 314.172 235.776 313.909C236.302 313.629 236.837 313.26 237.38 312.805C237.941 312.349 238.414 311.805 238.8 311.174C239.186 310.543 239.379 309.824 239.379 309.018C239.379 308.088 239.028 307.308 238.327 306.677C237.643 306.028 236.714 305.704 235.539 305.704ZM288.784 330.135C290.607 330.135 292.229 329.881 293.649 329.373C295.069 328.847 296.113 328.33 296.779 327.821L299.593 333.423C298.786 334.124 297.393 334.834 295.411 335.553C293.448 336.272 291.098 336.631 288.363 336.631C285.804 336.631 283.41 336.184 281.184 335.29C278.957 334.378 277.002 333.116 275.319 331.503C273.636 329.872 272.321 327.97 271.374 325.796C270.428 323.605 269.954 321.238 269.954 318.695C269.954 316.153 270.419 313.786 271.348 311.595C272.295 309.386 273.61 307.466 275.293 305.835C276.976 304.205 278.931 302.934 281.157 302.022C283.402 301.11 285.804 300.655 288.363 300.655C291.098 300.655 293.448 301.014 295.411 301.733C297.393 302.452 298.786 303.162 299.593 303.863L296.779 309.465C296.113 308.956 295.069 308.448 293.649 307.939C292.229 307.413 290.607 307.15 288.784 307.15C286.926 307.15 285.269 307.448 283.814 308.045C282.376 308.641 281.149 309.473 280.132 310.543C279.132 311.595 278.37 312.813 277.844 314.198C277.318 315.583 277.055 317.056 277.055 318.617C277.055 320.194 277.318 321.685 277.844 323.087C278.37 324.472 279.132 325.7 280.132 326.769C281.149 327.821 282.376 328.645 283.814 329.241C285.269 329.837 286.926 330.135 288.784 330.135ZM324.953 321.483H311.172V336H304.65V301.286H311.172V315.697H324.953V301.286H331.475V336H324.953V321.483ZM348.849 301.286H355.45L368.81 336H361.815L359.106 328.505H345.22L342.459 336H335.437L348.849 301.286ZM347.377 322.693H356.949L352.189 309.228H352.11L347.377 322.693ZM385.992 336H378.497L366.005 301.286H373.395L382.258 327.742L391.12 301.286H398.51L385.992 336ZM402.654 301.286H424.192V307.098H409.176V315.776H423.982V321.404H409.176V330.188H424.192V336H402.654V301.286ZM442.536 300.655C444.622 300.655 446.437 300.891 447.979 301.365C449.54 301.82 450.776 302.311 451.688 302.837C452.617 303.363 453.178 303.705 453.371 303.863L450.162 309.202C449.882 308.974 449.4 308.658 448.716 308.255C448.05 307.834 447.243 307.466 446.296 307.15C445.35 306.817 444.324 306.651 443.219 306.651C441.624 306.651 440.344 306.957 439.38 307.571C438.433 308.167 437.96 309.035 437.96 310.175C437.96 310.946 438.214 311.639 438.722 312.252C439.231 312.848 439.976 313.409 440.958 313.935C441.957 314.461 443.176 315.014 444.613 315.592C445.876 316.083 447.077 316.653 448.216 317.302C449.373 317.95 450.399 318.713 451.293 319.59C452.205 320.466 452.924 321.483 453.45 322.64C453.993 323.797 454.265 325.121 454.265 326.611C454.265 328.277 453.923 329.732 453.239 330.977C452.573 332.222 451.644 333.265 450.452 334.106C449.277 334.948 447.927 335.579 446.402 336C444.876 336.421 443.272 336.631 441.589 336.631C439.31 336.631 437.258 336.368 435.435 335.842C433.629 335.299 432.165 334.72 431.043 334.106C429.921 333.493 429.264 333.098 429.071 332.923L432.437 327.374C432.647 327.532 433.042 327.786 433.62 328.137C434.216 328.487 434.935 328.847 435.777 329.215C436.636 329.583 437.565 329.899 438.565 330.162C439.581 330.425 440.616 330.556 441.668 330.556C443.561 330.556 444.99 330.162 445.954 329.373C446.919 328.584 447.401 327.558 447.401 326.296C447.401 325.349 447.094 324.516 446.48 323.797C445.867 323.079 444.999 322.421 443.877 321.825C442.772 321.211 441.449 320.589 439.906 319.958C438.363 319.309 436.925 318.555 435.593 317.696C434.278 316.819 433.217 315.75 432.411 314.488C431.604 313.208 431.201 311.639 431.201 309.78C431.201 307.939 431.718 306.335 432.752 304.968C433.804 303.6 435.19 302.539 436.908 301.785C438.643 301.032 440.519 300.655 442.536 300.655Z" fill="#09090B"/>
<path d="M125.627 97.7469V217.504L152.005 231.467L151.377 111.71L168.335 102.31V240.059L228.627 273.355L287.664 241.67V116.543L261.286 102.31V230.393L228.627 248.115L194.713 229.856V60.155L125.627 97.7469Z" fill="#FF8100"/>
<path d="M228.627 232.541L214.81 225.022V49.4145L227.999 42.4331L330.371 98.2839V218.041L303.993 232.541V111.173L241.188 77.3399V225.559L228.627 232.541Z" fill="#FF8100"/>
<path fill-rule="evenodd" clip-rule="evenodd" d="M228.005 41.8003L331 97.991V218.336L303.366 233.526V111.47L241.817 78.3144V225.852L228.632 233.181L214.183 225.319V49.1168L228.005 41.8003ZM215.439 49.7151V224.729L228.624 231.904L240.561 225.269V76.3683L304.622 110.878V231.559L329.744 217.749V98.5798L227.995 43.0688L215.439 49.7151ZM195.341 59.1782V229.561L228.627 247.481L260.659 230.099V101.338L288.293 116.248V241.969L228.623 273.993L167.707 240.353V103.3L152.008 112.002L152.639 232.435L125 217.805V97.4536L195.341 59.1782ZM126.256 98.0432V217.206L151.373 230.501L150.748 111.42L168.963 101.323V239.768L228.633 272.72L287.037 241.375V116.84L261.915 103.285V230.689L228.629 248.751L194.085 230.154V61.1348L126.256 98.0432Z" fill="#FF8100"/>
<path d="M228.627 28.0246L125.627 83.8755V55.95L227.999 0.63623L330.371 56.4871V83.3384L228.627 28.0246Z" fill="#FF8100"/>
<path fill-rule="evenodd" clip-rule="evenodd" d="M228.002 0L331 56.1926V84.3162L228.628 28.6607L125 84.8518V55.654L228.002 0ZM126.256 56.2458V82.8989L228.628 27.3884L329.744 82.3605V56.7813L227.998 1.27228L126.256 56.2458Z" fill="#FF8100"/>
<path d="M172.732 0.63623V55.95H146.354V15.136L172.732 0.63623Z" fill="#FF8100"/>
</svg>
