<svg width="497" height="398" viewBox="0 0 497 398" fill="none" xmlns="http://www.w3.org/2000/svg">
<path d="M15.6731 313.561C17.9421 313.561 19.9155 313.818 21.5934 314.333C23.2904 314.829 24.6346 315.363 25.6261 315.935C26.6366 316.507 27.2468 316.879 27.4565 317.05L23.9672 322.856C23.6622 322.608 23.1378 322.265 22.3942 321.826C21.6697 321.369 20.7926 320.968 19.763 320.625C18.7333 320.263 17.6179 320.082 16.4167 320.082C14.6816 320.082 13.2897 320.415 12.241 321.083C11.2114 321.731 10.6966 322.675 10.6966 323.914C10.6966 324.753 10.9731 325.506 11.526 326.174C12.079 326.822 12.8893 327.432 13.9571 328.004C15.0439 328.576 16.369 329.177 17.9325 329.806C19.3054 330.34 20.6114 330.96 21.8508 331.665C23.1092 332.371 24.2246 333.2 25.1971 334.153C26.1886 335.107 26.9703 336.213 27.5423 337.471C28.1334 338.729 28.4289 340.169 28.4289 341.79C28.4289 343.601 28.0571 345.184 27.3135 346.537C26.589 347.891 25.5784 349.026 24.2818 349.941C23.0044 350.856 21.5362 351.542 19.8774 352C18.2185 352.458 16.4739 352.686 14.6435 352.686C12.1648 352.686 9.93392 352.4 7.95095 351.828C5.98704 351.237 4.39495 350.608 3.17466 349.941C1.95437 349.273 1.23936 348.844 1.02962 348.654L4.69049 342.619C4.91929 342.791 5.3483 343.067 5.97751 343.448C6.62579 343.83 7.40754 344.221 8.32275 344.621C9.25704 345.021 10.2676 345.365 11.3544 345.651C12.4603 345.937 13.5853 346.08 14.7293 346.08C16.7885 346.08 18.3425 345.651 19.3912 344.793C20.4398 343.935 20.9642 342.819 20.9642 341.446C20.9642 340.417 20.6305 339.511 19.9632 338.729C19.2958 337.948 18.352 337.233 17.1317 336.584C15.9305 335.917 14.4909 335.24 12.813 334.554C11.1351 333.848 9.57164 333.028 8.12255 332.094C6.69252 331.141 5.53897 329.978 4.66189 328.605C3.7848 327.213 3.34626 325.506 3.34626 323.485C3.34626 321.483 3.90874 319.739 5.03369 318.251C6.17771 316.764 7.68401 315.611 9.55258 314.791C11.4402 313.971 13.4804 313.561 15.6731 313.561ZM39.975 333.095C39.975 335.497 40.4708 337.671 41.4623 339.616C42.4728 341.561 43.8552 343.105 45.6094 344.249C47.3635 345.374 49.3942 345.937 51.7013 345.937C54.0084 345.937 56.039 345.374 57.7932 344.249C59.5664 343.105 60.9488 341.561 61.9403 339.616C62.9317 337.671 63.4275 335.497 63.4275 333.095C63.4275 330.693 62.9317 328.528 61.9403 326.603C60.9488 324.658 59.5664 323.113 57.7932 321.969C56.039 320.825 54.0084 320.253 51.7013 320.253C49.3942 320.253 47.3635 320.825 45.6094 321.969C43.8552 323.113 42.4728 324.658 41.4623 326.603C40.4708 328.528 39.975 330.693 39.975 333.095ZM32.5389 333.095C32.5389 330.349 33.0156 327.794 33.9689 325.43C34.9414 323.047 36.2951 320.968 38.0302 319.195C39.7653 317.422 41.7959 316.04 44.1221 315.048C46.4674 314.057 48.9937 313.561 51.7013 313.561C54.4469 313.561 56.9828 314.057 59.309 315.048C61.6352 316.04 63.6563 317.422 65.3723 319.195C67.1074 320.968 68.4516 323.047 69.405 325.43C70.3583 327.794 70.835 330.349 70.835 333.095C70.835 335.86 70.3679 338.434 69.4336 340.817C68.4993 343.182 67.1742 345.26 65.4581 347.052C63.7421 348.825 61.721 350.208 59.3948 351.199C57.0686 352.191 54.5041 352.686 51.7013 352.686C48.8603 352.686 46.2672 352.191 43.9219 351.199C41.5957 350.208 39.5746 348.825 37.8586 347.052C36.1616 345.26 34.846 343.182 33.9117 340.817C32.9965 338.434 32.5389 335.86 32.5389 333.095ZM82.6685 320.854L83.1547 320.94V352H76.0332V314.247H85.8717L102.803 345.25L102.317 345.365V314.247H109.439V352H99.5428L82.6685 320.854ZM138.444 336.213H123.457V352H116.364V314.247H123.457V329.92H138.444V314.247H145.537V352H138.444V336.213ZM158.455 333.095C158.455 335.497 158.951 337.671 159.942 339.616C160.953 341.561 162.335 343.105 164.089 344.249C165.843 345.374 167.874 345.937 170.181 345.937C172.488 345.937 174.519 345.374 176.273 344.249C178.046 343.105 179.429 341.561 180.42 339.616C181.412 337.671 181.907 335.497 181.907 333.095C181.907 330.693 181.412 328.528 180.42 326.603C179.429 324.658 178.046 323.113 176.273 321.969C174.519 320.825 172.488 320.253 170.181 320.253C167.874 320.253 165.843 320.825 164.089 321.969C162.335 323.113 160.953 324.658 159.942 326.603C158.951 328.528 158.455 330.693 158.455 333.095ZM151.019 333.095C151.019 330.349 151.496 327.794 152.449 325.43C153.421 323.047 154.775 320.968 156.51 319.195C158.245 317.422 160.276 316.04 162.602 315.048C164.947 314.057 167.474 313.561 170.181 313.561C172.927 313.561 175.463 314.057 177.789 315.048C180.115 316.04 182.136 317.422 183.852 319.195C185.587 320.968 186.932 323.047 187.885 325.43C188.838 327.794 189.315 330.349 189.315 333.095C189.315 335.86 188.848 338.434 187.914 340.817C186.979 343.182 185.654 345.26 183.938 347.052C182.222 348.825 180.201 350.208 177.875 351.199C175.549 352.191 172.984 352.686 170.181 352.686C167.34 352.686 164.747 352.191 162.402 351.199C160.076 350.208 158.055 348.825 156.339 347.052C154.642 345.26 153.326 343.182 152.392 340.817C151.476 338.434 151.019 335.86 151.019 333.095ZM207.498 313.561C209.767 313.561 211.74 313.818 213.418 314.333C215.115 314.829 216.459 315.363 217.451 315.935C218.461 316.507 219.071 316.879 219.281 317.05L215.792 322.856C215.487 322.608 214.962 322.265 214.219 321.826C213.494 321.369 212.617 320.968 211.588 320.625C210.558 320.263 209.443 320.082 208.241 320.082C206.506 320.082 205.114 320.415 204.066 321.083C203.036 321.731 202.521 322.675 202.521 323.914C202.521 324.753 202.798 325.506 203.351 326.174C203.904 326.822 204.714 327.432 205.782 328.004C206.869 328.576 208.194 329.177 209.757 329.806C211.13 330.34 212.436 330.96 213.675 331.665C214.934 332.371 216.049 333.2 217.022 334.153C218.013 335.107 218.795 336.213 219.367 337.471C219.958 338.729 220.254 340.169 220.254 341.79C220.254 343.601 219.882 345.184 219.138 346.537C218.414 347.891 217.403 349.026 216.106 349.941C214.829 350.856 213.361 351.542 211.702 352C210.043 352.458 208.299 352.686 206.468 352.686C203.989 352.686 201.759 352.4 199.776 351.828C197.812 351.237 196.22 350.608 194.999 349.941C193.779 349.273 193.064 348.844 192.854 348.654L196.515 342.619C196.744 342.791 197.173 343.067 197.802 343.448C198.45 343.83 199.232 344.221 200.147 344.621C201.082 345.021 202.092 345.365 203.179 345.651C204.285 345.937 205.41 346.08 206.554 346.08C208.613 346.08 210.167 345.651 211.216 344.793C212.264 343.935 212.789 342.819 212.789 341.446C212.789 340.417 212.455 339.511 211.788 338.729C211.12 337.948 210.177 337.233 208.956 336.584C207.755 335.917 206.316 335.24 204.638 334.554C202.96 333.848 201.396 333.028 199.947 332.094C198.517 331.141 197.364 329.978 196.487 328.605C195.609 327.213 195.171 325.506 195.171 323.485C195.171 321.483 195.733 319.739 196.858 318.251C198.002 316.764 199.509 315.611 201.377 314.791C203.265 313.971 205.305 313.561 207.498 313.561ZM239.224 342.104C239.224 340.636 239.5 339.339 240.053 338.215C240.606 337.071 241.312 336.089 242.17 335.269C243.047 334.43 243.952 333.724 244.887 333.152C245.84 332.58 246.727 332.132 247.547 331.808C248.385 331.465 249.034 331.226 249.491 331.093C249.091 330.864 248.624 330.492 248.09 329.978C247.575 329.444 247.07 328.805 246.574 328.061C246.097 327.299 245.697 326.45 245.373 325.516C245.049 324.582 244.887 323.6 244.887 322.57C244.887 320.968 245.325 319.481 246.202 318.108C247.098 316.736 248.395 315.639 250.092 314.819C251.789 313.98 253.82 313.561 256.184 313.561C258.529 313.561 260.483 313.961 262.047 314.762C263.63 315.563 264.821 316.65 265.622 318.023C266.442 319.395 266.852 320.949 266.852 322.684C266.852 324.038 266.547 325.259 265.937 326.345C265.346 327.413 264.602 328.357 263.706 329.177C262.81 329.978 261.914 330.654 261.017 331.207C260.14 331.76 259.397 332.18 258.787 332.466L265.222 339.387C265.698 338.987 266.356 338.3 267.195 337.328C268.053 336.356 268.94 335.192 269.855 333.839L274.603 338.1C274.317 338.558 273.907 339.139 273.373 339.845C272.839 340.55 272.257 341.256 271.628 341.961C271.018 342.667 270.417 343.267 269.826 343.763L277.663 352H268.654L264.478 347.567C263.506 348.406 262.381 349.216 261.103 349.998C259.845 350.78 258.415 351.428 256.813 351.943C255.211 352.439 253.4 352.686 251.379 352.686C249.186 352.686 247.165 352.276 245.316 351.457C243.485 350.637 242.008 349.435 240.883 347.853C239.777 346.27 239.224 344.354 239.224 342.104ZM253.009 335.383C252.761 335.478 252.399 335.64 251.922 335.869C251.465 336.079 250.969 336.356 250.435 336.699C249.901 337.023 249.396 337.423 248.919 337.9C248.443 338.358 248.052 338.882 247.747 339.473C247.442 340.064 247.289 340.731 247.289 341.475C247.289 342.505 247.527 343.363 248.004 344.049C248.481 344.716 249.12 345.212 249.92 345.536C250.74 345.86 251.646 346.022 252.637 346.022C253.648 346.022 254.62 345.851 255.555 345.508C256.489 345.164 257.337 344.745 258.1 344.249C258.882 343.754 259.502 343.277 259.959 342.819L253.009 335.383ZM256.155 319.052C255.24 319.052 254.458 319.233 253.81 319.596C253.162 319.939 252.676 320.387 252.351 320.94C252.027 321.493 251.865 322.065 251.865 322.656C251.865 323.285 252.018 323.933 252.323 324.601C252.628 325.268 252.981 325.888 253.381 326.46C253.8 327.032 254.182 327.508 254.525 327.89C254.868 328.252 255.068 328.471 255.126 328.548C255.412 328.452 255.841 328.262 256.413 327.976C256.985 327.67 257.566 327.27 258.157 326.774C258.767 326.279 259.282 325.688 259.702 325.001C260.121 324.315 260.331 323.533 260.331 322.656C260.331 321.645 259.95 320.797 259.187 320.11C258.443 319.405 257.433 319.052 256.155 319.052ZM314.061 345.622C316.044 345.622 317.807 345.346 319.352 344.793C320.896 344.221 322.031 343.658 322.755 343.105L325.815 349.197C324.938 349.96 323.423 350.732 321.268 351.514C319.132 352.296 316.577 352.686 313.603 352.686C310.819 352.686 308.217 352.2 305.795 351.228C303.374 350.236 301.248 348.863 299.417 347.109C297.587 345.336 296.157 343.267 295.127 340.903C294.097 338.52 293.583 335.946 293.583 333.181C293.583 330.416 294.088 327.842 295.098 325.459C296.128 323.056 297.558 320.968 299.389 319.195C301.219 317.422 303.345 316.04 305.766 315.048C308.207 314.057 310.819 313.561 313.603 313.561C316.577 313.561 319.132 313.952 321.268 314.734C323.423 315.515 324.938 316.287 325.815 317.05L322.755 323.142C322.031 322.589 320.896 322.036 319.352 321.483C317.807 320.911 316.044 320.625 314.061 320.625C312.04 320.625 310.238 320.949 308.655 321.598C307.092 322.246 305.757 323.152 304.651 324.315C303.564 325.459 302.735 326.784 302.163 328.29C301.591 329.796 301.305 331.398 301.305 333.095C301.305 334.811 301.591 336.432 302.163 337.957C302.735 339.463 303.564 340.798 304.651 341.961C305.757 343.105 307.092 344.001 308.655 344.65C310.238 345.298 312.04 345.622 314.061 345.622ZM353.395 336.213H338.408V352H331.315V314.247H338.408V329.92H353.395V314.247H360.488V352H353.395V336.213ZM379.383 314.247H386.562L401.091 352H393.483L390.538 343.849H375.436L372.433 352H364.797L379.383 314.247ZM377.782 337.528H388.192L383.016 322.885H382.93L377.782 337.528ZM419.777 352H411.626L398.041 314.247H406.077L415.716 343.019L425.354 314.247H433.391L419.777 352ZM437.897 314.247H461.321V320.568H444.99V330.006H461.092V336.127H444.99V345.679H461.321V352H437.897V314.247ZM481.27 313.561C483.539 313.561 485.512 313.818 487.19 314.333C488.887 314.829 490.231 315.363 491.223 315.935C492.233 316.507 492.843 316.879 493.053 317.05L489.564 322.856C489.259 322.608 488.734 322.265 487.991 321.826C487.266 321.369 486.389 320.968 485.359 320.625C484.33 320.263 483.214 320.082 482.013 320.082C480.278 320.082 478.886 320.415 477.838 321.083C476.808 321.731 476.293 322.675 476.293 323.914C476.293 324.753 476.57 325.506 477.123 326.174C477.675 326.822 478.486 327.432 479.554 328.004C480.64 328.576 481.966 329.177 483.529 329.806C484.902 330.34 486.208 330.96 487.447 331.665C488.706 332.371 489.821 333.2 490.794 334.153C491.785 335.107 492.567 336.213 493.139 337.471C493.73 338.729 494.025 340.169 494.025 341.79C494.025 343.601 493.654 345.184 492.91 346.537C492.185 347.891 491.175 349.026 489.878 349.941C488.601 350.856 487.133 351.542 485.474 352C483.815 352.458 482.07 352.686 480.24 352.686C477.761 352.686 475.53 352.4 473.547 351.828C471.584 351.237 469.991 350.608 468.771 349.941C467.551 349.273 466.836 348.844 466.626 348.654L470.287 342.619C470.516 342.791 470.945 343.067 471.574 343.448C472.222 343.83 473.004 344.221 473.919 344.621C474.854 345.021 475.864 345.365 476.951 345.651C478.057 345.937 479.182 346.08 480.326 346.08C482.385 346.08 483.939 345.651 484.988 344.793C486.036 343.935 486.561 342.819 486.561 341.446C486.561 340.417 486.227 339.511 485.56 338.729C484.892 337.948 483.949 337.233 482.728 336.584C481.527 335.917 480.087 335.24 478.41 334.554C476.732 333.848 475.168 333.028 473.719 332.094C472.289 331.141 471.135 329.978 470.258 328.605C469.381 327.213 468.943 325.506 468.943 323.485C468.943 321.483 469.505 319.739 470.63 318.251C471.774 316.764 473.281 315.611 475.149 314.791C477.037 313.971 479.077 313.561 481.27 313.561Z" fill="#09090B"/>
<path d="M102.538 389.383C103.689 389.383 104.685 389.224 105.527 388.906C106.379 388.588 106.982 388.279 107.337 387.98L108.39 390.043C107.969 390.417 107.235 390.796 106.187 391.179C105.148 391.563 103.9 391.755 102.44 391.755C101.074 391.755 99.8067 391.512 98.6374 391.025C97.468 390.539 96.4436 389.86 95.5642 388.99C94.6942 388.12 94.0113 387.105 93.5155 385.945C93.029 384.785 92.7858 383.532 92.7858 382.185C92.7858 380.837 93.029 379.579 93.5155 378.41C94.002 377.24 94.6802 376.221 95.5502 375.351C96.4296 374.471 97.454 373.789 98.6233 373.302C99.8021 372.806 101.074 372.558 102.44 372.558C103.9 372.558 105.148 372.75 106.187 373.134C107.235 373.517 107.969 373.896 108.39 374.27L107.337 376.333C106.982 376.024 106.379 375.716 105.527 375.407C104.685 375.089 103.689 374.93 102.538 374.93C101.491 374.93 100.532 375.108 99.6617 375.463C98.7917 375.819 98.034 376.324 97.3885 376.979C96.7523 377.624 96.2565 378.386 95.901 379.266C95.5549 380.145 95.3818 381.104 95.3818 382.143C95.3818 383.19 95.5549 384.159 95.901 385.047C96.2565 385.927 96.7523 386.694 97.3885 387.349C98.034 387.994 98.7917 388.495 99.6617 388.85C100.532 389.206 101.491 389.383 102.538 389.383ZM112.848 382.143C112.848 383.518 113.133 384.757 113.704 385.861C114.284 386.965 115.079 387.844 116.089 388.499C117.099 389.145 118.259 389.467 119.569 389.467C120.888 389.467 122.048 389.145 123.049 388.499C124.06 387.844 124.85 386.965 125.421 385.861C125.991 384.757 126.277 383.518 126.277 382.143C126.277 380.767 125.991 379.532 125.421 378.438C124.85 377.334 124.06 376.459 123.049 375.814C122.048 375.168 120.888 374.846 119.569 374.846C118.259 374.846 117.099 375.168 116.089 375.814C115.079 376.459 114.284 377.334 113.704 378.438C113.133 379.532 112.848 380.767 112.848 382.143ZM110.364 382.143C110.364 380.795 110.593 379.542 111.051 378.382C111.519 377.212 112.169 376.193 113.002 375.323C113.835 374.453 114.808 373.774 115.921 373.288C117.043 372.802 118.259 372.558 119.569 372.558C120.888 372.558 122.104 372.802 123.218 373.288C124.34 373.774 125.313 374.453 126.136 375.323C126.969 376.193 127.614 377.212 128.073 378.382C128.531 379.542 128.76 380.795 128.76 382.143C128.76 383.499 128.531 384.762 128.073 385.931C127.624 387.091 126.983 388.111 126.15 388.99C125.327 389.86 124.359 390.539 123.246 391.025C122.132 391.512 120.907 391.755 119.569 391.755C118.231 391.755 116.997 391.512 115.865 391.025C114.742 390.539 113.769 389.86 112.946 388.99C112.123 388.111 111.486 387.091 111.037 385.931C110.588 384.762 110.364 383.499 110.364 382.143ZM131.557 372.895H138.026C139.027 372.895 139.935 373.106 140.749 373.527C141.572 373.938 142.227 374.546 142.713 375.351C143.209 376.146 143.457 377.119 143.457 378.27C143.457 379.411 143.228 380.356 142.769 381.104C142.32 381.853 141.778 382.418 141.141 382.802C140.505 383.176 139.916 383.382 139.373 383.419L143.962 391.418H141.24L136.946 383.588H133.957V391.418H131.557V372.895ZM133.957 381.806H137.184C138.288 381.806 139.2 381.53 139.921 380.978C140.641 380.426 141.001 379.542 141.001 378.326C141.001 377.11 140.641 376.235 139.921 375.702C139.21 375.168 138.302 374.902 137.198 374.902H133.957V381.806ZM147.125 372.895H153.594C154.595 372.895 155.502 373.106 156.316 373.527C157.139 373.938 157.794 374.546 158.28 375.351C158.776 376.146 159.024 377.119 159.024 378.27C159.024 379.411 158.795 380.356 158.337 381.104C157.887 381.853 157.345 382.418 156.709 382.802C156.073 383.176 155.483 383.382 154.941 383.419L159.529 391.418H156.807L152.513 383.588H149.524V391.418H147.125V372.895ZM149.524 381.806H152.752C153.855 381.806 154.768 381.53 155.488 380.978C156.208 380.426 156.568 379.542 156.568 378.326C156.568 377.11 156.208 376.235 155.488 375.702C154.777 375.168 153.87 374.902 152.766 374.902H149.524V381.806ZM162.706 372.895H173.651V375.07H165.077V381.076H173.483V383.195H165.077V389.243H173.651V391.418H162.706V372.895ZM181.268 375.07H176.272V372.895H188.677V375.07H183.681V391.418H181.268V375.07ZM192.164 382.143C192.164 383.518 192.449 384.757 193.02 385.861C193.6 386.965 194.395 387.844 195.405 388.499C196.416 389.145 197.576 389.467 198.886 389.467C200.205 389.467 201.365 389.145 202.366 388.499C203.376 387.844 204.166 386.965 204.737 385.861C205.308 384.757 205.593 383.518 205.593 382.143C205.593 380.767 205.308 379.532 204.737 378.438C204.166 377.334 203.376 376.459 202.366 375.814C201.365 375.168 200.205 374.846 198.886 374.846C197.576 374.846 196.416 375.168 195.405 375.814C194.395 376.459 193.6 377.334 193.02 378.438C192.449 379.532 192.164 380.767 192.164 382.143ZM189.68 382.143C189.68 380.795 189.909 379.542 190.368 378.382C190.836 377.212 191.486 376.193 192.318 375.323C193.151 374.453 194.124 373.774 195.237 373.288C196.36 372.802 197.576 372.558 198.886 372.558C200.205 372.558 201.421 372.802 202.534 373.288C203.657 373.774 204.629 374.453 205.453 375.323C206.285 376.193 206.931 377.212 207.389 378.382C207.848 379.542 208.077 380.795 208.077 382.143C208.077 383.499 207.848 384.762 207.389 385.931C206.94 387.091 206.299 388.111 205.467 388.99C204.644 389.86 203.675 390.539 202.562 391.025C201.449 391.512 200.223 391.755 198.886 391.755C197.548 391.755 196.313 391.512 195.181 391.025C194.058 390.539 193.085 389.86 192.262 388.99C191.439 388.111 190.803 387.091 190.354 385.931C189.905 384.762 189.68 383.499 189.68 382.143ZM210.874 372.895H217.343C218.344 372.895 219.251 373.106 220.065 373.527C220.888 373.938 221.543 374.546 222.029 375.351C222.525 376.146 222.773 377.119 222.773 378.27C222.773 379.411 222.544 380.356 222.086 381.104C221.637 381.853 221.094 382.418 220.458 382.802C219.822 383.176 219.232 383.382 218.69 383.419L223.278 391.418H220.556L216.262 383.588H213.273V391.418H210.874V372.895ZM213.273 381.806H216.501C217.605 381.806 218.517 381.53 219.237 380.978C219.957 380.426 220.318 379.542 220.318 378.326C220.318 377.11 219.957 376.235 219.237 375.702C218.526 375.168 217.619 374.902 216.515 374.902H213.273V381.806ZM226.455 372.895H237.4V375.07H228.826V381.076H237.232V383.195H228.826V389.243H237.4V391.418H226.455V372.895ZM246.953 372.558C248.02 372.558 248.937 372.68 249.704 372.923C250.48 373.166 251.088 373.424 251.528 373.695C251.977 373.966 252.244 374.144 252.328 374.228L251.093 376.207C250.953 376.085 250.705 375.912 250.349 375.688C249.994 375.454 249.549 375.248 249.016 375.07C248.483 374.883 247.875 374.789 247.192 374.789C246.135 374.789 245.297 375.005 244.68 375.435C244.072 375.856 243.768 376.455 243.768 377.231C243.768 377.755 243.927 378.218 244.245 378.62C244.572 379.013 245.031 379.373 245.62 379.701C246.21 380.028 246.897 380.365 247.683 380.711C248.328 380.982 248.96 381.291 249.577 381.637C250.204 381.983 250.77 382.39 251.275 382.858C251.79 383.326 252.197 383.869 252.496 384.486C252.805 385.103 252.959 385.814 252.959 386.619C252.959 387.414 252.795 388.13 252.468 388.766C252.15 389.402 251.696 389.945 251.107 390.394C250.527 390.833 249.849 391.17 249.072 391.404C248.296 391.638 247.458 391.755 246.56 391.755C245.428 391.755 244.404 391.614 243.487 391.334C242.58 391.053 241.845 390.758 241.284 390.45C240.732 390.141 240.414 389.949 240.33 389.874L241.635 387.812C241.747 387.905 241.953 388.045 242.252 388.233C242.552 388.41 242.921 388.597 243.361 388.794C243.801 388.99 244.296 389.159 244.848 389.299C245.4 389.43 245.99 389.496 246.617 389.496C247.87 389.496 248.82 389.215 249.465 388.654C250.111 388.092 250.433 387.372 250.433 386.493C250.433 385.819 250.228 385.239 249.816 384.753C249.404 384.266 248.857 383.831 248.174 383.448C247.491 383.064 246.738 382.694 245.915 382.339C245.073 381.955 244.301 381.534 243.6 381.076C242.898 380.618 242.332 380.07 241.902 379.434C241.481 378.789 241.27 378.012 241.27 377.105C241.27 376.207 241.523 375.416 242.028 374.733C242.542 374.05 243.23 373.517 244.091 373.134C244.961 372.75 245.915 372.558 246.953 372.558ZM262.946 372.895H267.31C269.284 372.895 270.907 373.293 272.179 374.088C273.461 374.874 274.41 375.964 275.028 377.357C275.645 378.751 275.954 380.346 275.954 382.143C275.954 383.948 275.645 385.548 275.028 386.942C274.41 388.336 273.466 389.43 272.193 390.225C270.921 391.02 269.293 391.418 267.31 391.418H262.946V372.895ZM265.331 375.084V389.229H267.114C268.573 389.229 269.766 388.925 270.692 388.317C271.618 387.709 272.301 386.876 272.741 385.819C273.19 384.753 273.419 383.536 273.428 382.171C273.428 380.795 273.208 379.579 272.769 378.522C272.329 377.456 271.641 376.618 270.706 376.01C269.77 375.393 268.573 375.084 267.114 375.084H265.331ZM279.022 372.895H289.967V375.07H281.393V381.076H289.799V383.195H281.393V389.243H289.967V391.418H279.022V372.895ZM300.952 372.895H303.366V391.418H300.952V372.895ZM324.061 372.895V391.418H321.675V378.045L321.802 375.996L321.296 378.256L316.834 390.366H314.463L310 378.256L309.509 375.996L309.621 378.045V391.418H307.222V372.895H310.421L315.473 387.433L315.641 388.373L315.824 387.433L320.89 372.895H324.061ZM329.556 382.143C329.556 383.518 329.841 384.757 330.412 385.861C330.992 386.965 331.787 387.844 332.798 388.499C333.808 389.145 334.968 389.467 336.278 389.467C337.597 389.467 338.757 389.145 339.758 388.499C340.768 387.844 341.559 386.965 342.129 385.861C342.7 384.757 342.985 383.518 342.985 382.143C342.985 380.767 342.7 379.532 342.129 378.438C341.559 377.334 340.768 376.459 339.758 375.814C338.757 375.168 337.597 374.846 336.278 374.846C334.968 374.846 333.808 375.168 332.798 375.814C331.787 376.459 330.992 377.334 330.412 378.438C329.841 379.532 329.556 380.767 329.556 382.143ZM327.072 382.143C327.072 380.795 327.302 379.542 327.76 378.382C328.228 377.212 328.878 376.193 329.71 375.323C330.543 374.453 331.516 373.774 332.629 373.288C333.752 372.802 334.968 372.558 336.278 372.558C337.597 372.558 338.813 372.802 339.926 373.288C341.049 373.774 342.022 374.453 342.845 375.323C343.677 376.193 344.323 377.212 344.781 378.382C345.24 379.542 345.469 380.795 345.469 382.143C345.469 383.499 345.24 384.762 344.781 385.931C344.332 387.091 343.691 388.111 342.859 388.99C342.036 389.86 341.067 390.539 339.954 391.025C338.841 391.512 337.615 391.755 336.278 391.755C334.94 391.755 333.705 391.512 332.573 391.025C331.45 390.539 330.478 389.86 329.654 388.99C328.831 388.111 328.195 387.091 327.746 385.931C327.297 384.762 327.072 383.499 327.072 382.143ZM335.169 372.109L334.299 370.945L338.579 367.422L339.954 369.162L335.169 372.109ZM365.035 372.895V391.418H362.649V378.045L362.775 375.996L362.27 378.256L357.808 390.366H355.436L350.974 378.256L350.483 375.996L350.595 378.045V391.418H348.196V372.895H351.395L356.447 387.433L356.615 388.373L356.798 387.433L361.863 372.895H365.035ZM368.972 372.895H379.918V375.07H371.344V381.076H379.749V383.195H371.344V389.243H379.918V391.418H368.972V372.895ZM383.914 372.895H386.327V391.418H383.914V372.895ZM396.021 372.558C397.087 372.558 398.004 372.68 398.771 372.923C399.548 373.166 400.156 373.424 400.595 373.695C401.045 373.966 401.311 374.144 401.395 374.228L400.16 376.207C400.02 376.085 399.772 375.912 399.417 375.688C399.061 375.454 398.617 375.248 398.084 375.07C397.55 374.883 396.942 374.789 396.259 374.789C395.202 374.789 394.365 375.005 393.748 375.435C393.14 375.856 392.836 376.455 392.836 377.231C392.836 377.755 392.995 378.218 393.313 378.62C393.64 379.013 394.098 379.373 394.688 379.701C395.277 380.028 395.965 380.365 396.751 380.711C397.396 380.982 398.028 381.291 398.645 381.637C399.272 381.983 399.838 382.39 400.343 382.858C400.857 383.326 401.264 383.869 401.564 384.486C401.872 385.103 402.027 385.814 402.027 386.619C402.027 387.414 401.863 388.13 401.536 388.766C401.218 389.402 400.764 389.945 400.174 390.394C399.594 390.833 398.916 391.17 398.14 391.404C397.363 391.638 396.526 391.755 395.628 391.755C394.496 391.755 393.472 391.614 392.555 391.334C391.647 391.053 390.913 390.758 390.352 390.45C389.8 390.141 389.482 389.949 389.398 389.874L390.703 387.812C390.815 387.905 391.021 388.045 391.32 388.233C391.619 388.41 391.989 388.597 392.429 388.794C392.868 388.99 393.364 389.159 393.916 389.299C394.468 389.43 395.057 389.496 395.684 389.496C396.938 389.496 397.887 389.215 398.533 388.654C399.178 388.092 399.501 387.372 399.501 386.493C399.501 385.819 399.295 385.239 398.884 384.753C398.472 384.266 397.925 383.831 397.242 383.448C396.559 383.064 395.806 382.694 394.982 382.339C394.141 381.955 393.369 381.534 392.667 381.076C391.965 380.618 391.4 380.07 390.969 379.434C390.548 378.789 390.338 378.012 390.338 377.105C390.338 376.207 390.59 375.416 391.095 374.733C391.61 374.05 392.298 373.517 393.158 373.134C394.028 372.75 394.982 372.558 396.021 372.558Z" fill="#FF8100"/>
<path d="M145.627 97.7464V217.503L172.005 231.466L171.377 111.709L188.335 102.31V240.059L248.627 273.354L307.664 241.67V116.542L281.286 102.31V230.392L248.627 248.114L214.713 229.855V60.1545L145.627 97.7464Z" fill="#FF8100"/>
<path d="M248.627 232.54L234.81 225.022V49.414L247.999 42.4326L350.371 98.2835V218.041L323.993 232.54V111.172L261.188 77.3394V225.559L248.627 232.54Z" fill="#FF8100"/>
<path fill-rule="evenodd" clip-rule="evenodd" d="M248.005 41.7998L351 97.9905V218.335L323.366 233.525V111.47L261.817 78.3139V225.852L248.632 233.18L234.183 225.318V49.1163L248.005 41.7998ZM235.439 49.7146V224.729L248.624 231.903L260.561 225.269V76.3678L324.622 110.877V231.558L349.744 217.749V98.5793L247.995 43.0683L235.439 49.7146ZM215.341 59.1777V229.56L248.627 247.48L280.659 230.098V101.337L308.293 116.248V241.968L248.623 273.992L187.707 240.353V103.299L172.008 112.002L172.639 232.434L145 217.804V97.4531L215.341 59.1777ZM146.256 98.0427V217.206L171.373 230.501L170.748 111.42L188.963 101.323V239.768L248.633 272.719L307.037 241.374V116.84L281.915 103.285V230.689L248.629 248.751L214.085 230.153V61.1343L146.256 98.0427Z" fill="#FF8100"/>
<path d="M248.627 28.0241L145.627 83.875V55.9495L247.999 0.635742L350.371 56.4866V83.3379L248.627 28.0241Z" fill="#FF8100"/>
<path fill-rule="evenodd" clip-rule="evenodd" d="M248.002 0L351 56.1926V84.3162L248.628 28.6607L145 84.8518V55.654L248.002 0ZM146.256 56.2458V82.8989L248.628 27.3884L349.744 82.3605V56.7813L247.998 1.27228L146.256 56.2458Z" fill="#FF8100"/>
<path d="M192.732 0.635742V55.9495H166.354V15.1355L192.732 0.635742Z" fill="#FF8100"/>
</svg>
